<?xml version="1.0" encoding="UTF-8" standalone="no"?>
<!-- Generator: Adobe Illustrator 19.0.0, SVG Export Plug-In . SVG Version: 6.00 Build 0)  -->

<svg
   xmlns:dc="http://purl.org/dc/elements/1.1/"
   xmlns:cc="http://creativecommons.org/ns#"
   xmlns:rdf="http://www.w3.org/1999/02/22-rdf-syntax-ns#"
   xmlns:svg="http://www.w3.org/2000/svg"
   xmlns="http://www.w3.org/2000/svg"
   xmlns:sodipodi="http://sodipodi.sourceforge.net/DTD/sodipodi-0.dtd"
   xmlns:inkscape="http://www.inkscape.org/namespaces/inkscape"
   version="1.1"
   id="Capa_1"
   x="0px"
   y="0px"
   viewBox="0 0 465 315"
   xml:space="preserve"
   sodipodi:docname="catalunya.svg"
   inkscape:version="0.92.3 (2405546, 2018-03-11)"
   width="465"
   height="315"><metadata
   id="metadata69"><rdf:RDF><cc:Work
       rdf:about=""><dc:format>image/svg+xml</dc:format><dc:type
         rdf:resource="http://purl.org/dc/dcmitype/StillImage" /><dc:title></dc:title></cc:Work></rdf:RDF></metadata><defs
   id="defs67">
	
	
	
	
	
	
	
	
	
	
	
	
	
	
	
</defs><sodipodi:namedview
   pagecolor="#ffffff"
   bordercolor="#666666"
   borderopacity="1"
   objecttolerance="10"
   gridtolerance="10"
   guidetolerance="10"
   inkscape:pageopacity="0"
   inkscape:pageshadow="2"
   inkscape:window-width="1920"
   inkscape:window-height="1017"
   id="namedview65"
   showgrid="false"
   showguides="true"
   inkscape:guide-bbox="true"
   inkscape:zoom="0.35887571"
   inkscape:cx="-443.09002"
   inkscape:cy="442.21259"
   inkscape:window-x="-8"
   inkscape:window-y="-8"
   inkscape:window-maximized="1"
   inkscape:current-layer="Capa_1"><sodipodi:guide
     position="15,190"
     orientation="1,0"
     id="guide912"
     inkscape:locked="false" /><sodipodi:guide
     position="190.87389,308.42852"
     orientation="0,1"
     id="guide940"
     inkscape:locked="false" /><sodipodi:guide
     position="180.42459,323.40585"
     orientation="0,1"
     id="guide942"
     inkscape:locked="false" /><sodipodi:guide
     position="180.59874,315.91718"
     orientation="0,1"
     id="guide944"
     inkscape:locked="false" /><sodipodi:guide
     position="263.67068,249.38997"
     orientation="0,1"
     id="guide946"
     inkscape:locked="false" /><sodipodi:guide
     position="60,182.5"
     orientation="0,1"
     id="guide950"
     inkscape:locked="false" /></sodipodi:namedview>

<g
   id="g34"
   transform="translate(0,-150)">
</g>
<g
   id="g36"
   transform="translate(0,-150)">
</g>
<g
   id="g38"
   transform="translate(0,-150)">
</g>
<g
   id="g40"
   transform="translate(0,-150)">
</g>
<g
   id="g42"
   transform="translate(0,-150)">
</g>
<g
   id="g44"
   transform="translate(0,-150)">
</g>
<g
   id="g46"
   transform="translate(0,-150)">
</g>
<g
   id="g48"
   transform="translate(0,-150)">
</g>
<g
   id="g50"
   transform="translate(0,-150)">
</g>
<g
   id="g52"
   transform="translate(0,-150)">
</g>
<g
   id="g54"
   transform="translate(0,-150)">
</g>
<g
   id="g56"
   transform="translate(0,-150)">
</g>
<g
   id="g58"
   transform="translate(0,-150)">
</g>
<g
   id="g60"
   transform="translate(0,-150)">
</g>
<g
   id="g62"
   transform="translate(0,-150)">
</g>
<g
   id="g852"
   transform="translate(0,75)"><rect
     x="15"
     y="-0.99282837"
     style="fill:#ffff00;stroke-width:1.71388018"
     width="435"
     height="25.992821"
     id="rect18" /><rect
     x="15"
     y="-26.669998"
     style="fill:#ff0000;stroke-width:1.70799398"
     width="435"
     height="25.828665"
     id="rect4" /><path
     style="fill:#ff0000"
     d="m 420,199.17 c 0,-4.143 3.357,-7.5 7.5,-7.5 H 450 V 173.33 H 15 v 18.34 h 382.5 c 4.143,0 7.5,3.357 7.5,7.5 v 0 z"
     id="path8"
     inkscape:connector-curvature="0" /><path
     style="fill:#ffff00"
     d="m 427.5,206.67 c -4.143,0 -7.5,-3.357 -7.5,-7.5 h -15 c 0,4.143 -3.357,7.5 -7.5,7.5 H 15 V 225 h 435 v -18.33 z"
     id="path12"
     inkscape:connector-curvature="0" /><path
     style="fill:#ffff00"
     d="M 37.5,140 H 15 v 18.33 H 450 V 140 H 67.5 C 63.357,140 60,136.643 60,132.5 H 45 c 0,4.143 -3.357,7.5 -7.5,7.5 z"
     id="path14"
     inkscape:connector-curvature="0" /><rect
     x="15"
     y="-60"
     style="fill:#ffff00;stroke-width:1.43924582"
     width="435"
     height="18.33"
     id="rect20" /><rect
     x="15"
     y="106.67001"
     style="fill:#ff0000;stroke-width:1.71296489"
     width="435"
     height="25.965063"
     id="rect6" /><rect
     x="15"
     y="65.841339"
     style="fill:#ffff00;stroke-width:1.70799398"
     width="435"
     height="25.828665"
     id="rect16" /><rect
     x="15"
     y="40"
     style="fill:#ff0000;stroke-width:1.70235825"
     width="435"
     height="25.64451"
     id="rect2" /><path
     inkscape:connector-curvature="0"
     id="path22"
     d="M 7.5,-75 C 3.357,-75 0,-71.643 0,-67.5 v 300 c 0,4.143 3.357,7.5 7.5,7.5 h 450 c 4.143,0 7.5,-3.357 7.5,-7.5 v -300 c 0,-4.143 -3.357,-7.5 -7.5,-7.5 z m 7.5,15 h 210 15 210 v 18.33008 H 240 15 Z m 0,33.33008 H 240 450 V -8.33008 H 240 202.70898 199.3125 L 15,-8.99805 Z m 0,32.67187 176.48633,0.63867 c 0.18432,0.0136 0.36884,0.0293 0.55664,0.0293 h 7.26953 3.39648 H 240 450 V 25 H 240 15 Z M 15,40 H 240 450 V 58.33008 H 286.30273 279.07422 275.63672 15 Z m 0,33.33008 h 260.63672 3.4375 7.22851 H 450 V 91.66992 H 240 15 Z m 0,33.33984 H 240 450 V 125 H 240 225 204.7793 74.769531 67.5 15 Z M 15,140 H 67.5 74.769531 450 v 18.33008 H 15 Z m 0,33.33008 h 435 v 18.33984 H 431.63477 427.5 15 Z m 0,33.33984 H 427.5 431.63477 450 V 225 H 15 Z" /></g></svg>