<?xml version="1.0" encoding="UTF-8" standalone="no"?>
<svg
   xmlns:dc="http://purl.org/dc/elements/1.1/"
   xmlns:cc="http://creativecommons.org/ns#"
   xmlns:rdf="http://www.w3.org/1999/02/22-rdf-syntax-ns#"
   xmlns:svg="http://www.w3.org/2000/svg"
   xmlns="http://www.w3.org/2000/svg"
   xmlns:sodipodi="http://sodipodi.sourceforge.net/DTD/sodipodi-0.dtd"
   xmlns:inkscape="http://www.inkscape.org/namespaces/inkscape"
   width="300mm"
   height="300mm"
   viewBox="0 0 300.00001 300"
   version="1.1"
   id="svg8"
   inkscape:version="1.0.2-2 (e86c870879, 2021-01-15)"
   sodipodi:docname="ce trencada2.svg">
  <defs
     id="defs2">
    <rect
       x="240.01488"
       y="-260.04761"
       width="72.949402"
       height="30.616072"
       id="rect954" />
  </defs>
  <sodipodi:namedview
     id="base"
     pagecolor="#ffffff"
     bordercolor="#666666"
     borderopacity="1.0"
     inkscape:pageopacity="0.0"
     inkscape:pageshadow="2"
     inkscape:zoom="0.35355339"
     inkscape:cx="452.06775"
     inkscape:cy="426.70456"
     inkscape:document-units="mm"
     inkscape:current-layer="layer1"
     inkscape:document-rotation="0"
     showgrid="false"
     showguides="true"
     inkscape:guide-bbox="true"
     inkscape:snap-global="true"
     inkscape:window-width="1920"
     inkscape:window-height="1027"
     inkscape:window-x="1912"
     inkscape:window-y="-8"
     inkscape:window-maximized="1" />
  <metadata
     id="metadata5">
    <rdf:RDF>
      <cc:Work
         rdf:about="">
        <dc:format>image/svg+xml</dc:format>
        <dc:type
           rdf:resource="http://purl.org/dc/dcmitype/StillImage" />
        <dc:title></dc:title>
      </cc:Work>
    </rdf:RDF>
  </metadata>
  <g
     inkscape:label="Capa 1"
     inkscape:groupmode="layer"
     id="layer1">
    <text
       xml:space="preserve"
       id="text952"
       style="font-style:normal;font-weight:normal;font-size:10.5833px;line-height:1.25;font-family:sans-serif;white-space:pre;shape-inside:url(#rect954);fill:#000000;fill-opacity:1;stroke:none;" />
    <path
       id="path865"
       style="fill:#ffb800;fill-opacity:1;stroke-width:0.215492"
       d="m 199.9874,70.4462 -11.20189,19.40295 a 67.045508,67.045508 0 0 0 -29.21992,-6.70295 67.045508,67.045508 0 0 0 -0.12712,0 67.045508,67.045508 0 0 0 -66.918395,67.04552 67.045508,67.045508 0 0 0 29.400275,55.47879 l -11.29079,19.55746 7.49257,4.32583 11.25616,-19.497 a 67.045508,67.045508 0 0 0 30.1873,7.18044 67.045508,67.045508 0 0 0 33.55505,-9.00152 l -4.67722,-8.10079 a 57.691077,57.691077 0 0 1 -28.87783,7.74785 57.691077,57.691077 0 0 1 -25.5018,-5.9428 l 0.0238,-0.0408 a 57.691077,57.691077 0 0 1 -2.69958,-1.42007 l 57.65589,-99.87816 a 57.691077,57.691077 0 0 1 2.5833,1.62936 l 0.0227,-0.0398 a 57.691077,57.691077 0 0 1 5.1e-4,5.2e-4 l 15.82952,-27.419 z m -40.42181,22.05447 a 57.691077,57.691077 0 0 1 27.28671,6.8616 l -57.63317,99.8399 a 57.691077,57.691077 0 0 1 -2.58486,-1.69757 l -0.0227,0.0393 a 57.691077,57.691077 0 0 1 -24.73703,-47.35218 57.691077,57.691077 0 0 1 57.69105,-57.69105 z" />
  </g>
</svg>
