<?xml version="1.0" encoding="UTF-8" standalone="no"?>
<!-- Generator: Adobe Illustrator 16.0.0, SVG Export Plug-In . SVG Version: 6.00 Build 0)  -->

<svg
   xmlns:dc="http://purl.org/dc/elements/1.1/"
   xmlns:cc="http://creativecommons.org/ns#"
   xmlns:rdf="http://www.w3.org/1999/02/22-rdf-syntax-ns#"
   xmlns:svg="http://www.w3.org/2000/svg"
   xmlns="http://www.w3.org/2000/svg"
   xmlns:sodipodi="http://sodipodi.sourceforge.net/DTD/sodipodi-0.dtd"
   xmlns:inkscape="http://www.inkscape.org/namespaces/inkscape"
   version="1.1"
   id="Capa_1"
   x="0px"
   y="0px"
   width="799.99799"
   height="541.93799"
   viewBox="0 0 799.99799 541.93799"
   enable-background="new 0 0 800 800"
   xml:space="preserve"
   sodipodi:docname="espanya.svg"
   inkscape:version="0.92.3 (2405546, 2018-03-11)"><metadata
   id="metadata23"><rdf:RDF><cc:Work
       rdf:about=""><dc:format>image/svg+xml</dc:format><dc:type
         rdf:resource="http://purl.org/dc/dcmitype/StillImage" /><dc:title></dc:title></cc:Work></rdf:RDF></metadata><defs
   id="defs21" /><sodipodi:namedview
   pagecolor="#ffffff"
   bordercolor="#666666"
   borderopacity="1"
   objecttolerance="10"
   gridtolerance="10"
   guidetolerance="10"
   inkscape:pageopacity="0"
   inkscape:pageshadow="2"
   inkscape:window-width="1920"
   inkscape:window-height="1017"
   id="namedview19"
   showgrid="false"
   inkscape:zoom="0.295"
   inkscape:cx="-756.20395"
   inkscape:cy="533.74483"
   inkscape:window-x="-8"
   inkscape:window-y="-8"
   inkscape:window-maximized="1"
   inkscape:current-layer="Capa_1" />
<g
   id="g830"
   transform="translate(0,129.03074)"><g
     transform="translate(0,-258.06199)"
     id="g16">
	<path
   style="fill:#ffe000"
   inkscape:connector-curvature="0"
   id="path2"
   d="m 644.161,530.032 v -1 c 0,-6.563 -5.34,-11.903 -11.903,-11.903 H 24.807 V 282.871 h 750.387 v 234.258 h -91.322 c -6.563,0 -11.903,5.34 -11.903,11.903 v 1 z" />
	<path
   style="fill:#ffe000"
   inkscape:connector-curvature="0"
   id="path4"
   d="m 683.871,516.129 h 90.322 V 283.871 H 25.807 v 232.258 h 606.451 c 7.126,0 12.903,5.777 12.903,12.903 h 25.807 c 0,-7.126 5.777,-12.903 12.903,-12.903 z" />
	<rect
   style="fill:#ed1f34"
   id="rect6"
   height="105.226"
   width="750.38702"
   y="153.839"
   x="24.806999" />
	<rect
   style="fill:#ed1f34"
   id="rect8"
   height="103.226"
   width="748.38702"
   y="154.839"
   x="25.806999" />
	<path
   style="fill:#ed1f34"
   inkscape:connector-curvature="0"
   id="path10"
   d="M 24.807,646.161 V 540.936 h 607.451 c 6.563,0 11.903,-5.34 11.903,-11.903 v -1 h 27.807 v 1 c 0,6.563 5.34,11.903 11.903,11.903 h 91.322 V 646.162 H 24.807 Z" />
	<path
   style="fill:#ed1f34"
   inkscape:connector-curvature="0"
   id="path12"
   d="m 683.871,541.936 c -7.126,0 -12.903,-5.777 -12.903,-12.903 h -25.807 c 0,7.126 -5.777,12.903 -12.903,12.903 H 25.807 V 645.162 H 774.194 V 541.936 Z" />
	<path
   inkscape:connector-curvature="0"
   id="path14"
   d="M 12.902344,129.03125 C 5.7763437,129.03125 0,134.80955 0,141.93555 v 516.1289 c 0,7.126 5.7763437,12.9043 12.902344,12.9043 H 787.0957 c 7.126,0 12.90235,-5.7783 12.90235,-12.9043 v -516.1289 c 10e-4,-7.126 -5.77439,-12.9043 -12.90039,-12.9043 z m 12.904297,25.80859 H 774.19336 V 258.06445 H 25.806641 Z m 0,129.03125 H 774.19336 v 232.25782 h -90.32227 c -0.0132,0 -0.0259,0.002 -0.0391,0.002 H 25.806641 Z m 0,258.06446 h 658.064449 16.10157 74.2207 V 645.16016 H 25.806641 Z" />
</g></g>
</svg>