<?xml version="1.0" encoding="UTF-8" standalone="no"?>
<!-- Created with Inkscape (http://www.inkscape.org/) -->

<svg
   width="683.94897mm"
   height="271.871mm"
   viewBox="0 0 683.94897 271.871"
   version="1.1"
   id="svg4727"
   inkscape:version="1.1.1 (3bf5ae0d25, 2021-09-20)"
   sodipodi:docname="gpr-s_en.svg"
   xmlns:inkscape="http://www.inkscape.org/namespaces/inkscape"
   xmlns:sodipodi="http://sodipodi.sourceforge.net/DTD/sodipodi-0.dtd"
   xmlns="http://www.w3.org/2000/svg"
   xmlns:svg="http://www.w3.org/2000/svg">
  <sodipodi:namedview
     id="namedview4729"
     pagecolor="#ffffff"
     bordercolor="#666666"
     borderopacity="1.0"
     inkscape:pageshadow="2"
     inkscape:pageopacity="0.0"
     inkscape:pagecheckerboard="0"
     inkscape:document-units="mm"
     showgrid="false"
     inkscape:zoom="0.13385974"
     inkscape:cx="1680.8639"
     inkscape:cy="930.07802"
     inkscape:window-width="1920"
     inkscape:window-height="1009"
     inkscape:window-x="-8"
     inkscape:window-y="111"
     inkscape:window-maximized="1"
     inkscape:current-layer="layer1" />
  <defs
     id="defs4724" />
  <g
     inkscape:label="Capa 1"
     inkscape:groupmode="layer"
     id="layer1">
    <g
       id="g4842"
       transform="translate(126.03803,5.6049127)">
      <text
         inkscape:export-ydpi="70.065117"
         inkscape:export-xdpi="70.065117"
         xml:space="preserve"
         style="font-style:normal;font-variant:normal;font-weight:bold;font-stretch:normal;font-size:85.967px;line-height:1.25;font-family:'Century Gothic';-inkscape-font-specification:'Century Gothic Bold';letter-spacing:0px;word-spacing:0px;stroke-width:0.264583"
         x="61.8377"
         y="80.945244"
         id="text952"><tspan
           sodipodi:role="line"
           id="tspan950"
           x="61.8377"
           y="80.945244"
           style="font-style:normal;font-variant:normal;font-weight:bold;font-stretch:normal;font-size:85.967px;font-family:'Century Gothic';-inkscape-font-specification:'Century Gothic Bold';stroke-width:0.264583">Puig</tspan></text>
      <text
         inkscape:export-ydpi="70.065117"
         inkscape:export-xdpi="70.065117"
         xml:space="preserve"
         style="font-style:normal;font-variant:normal;font-weight:bold;font-stretch:normal;font-size:85.967px;line-height:1.25;font-family:'Century Gothic';-inkscape-font-specification:'Century Gothic Bold';letter-spacing:0px;word-spacing:0px;stroke-width:0.264583"
         x="60.998222"
         y="163.91582"
         id="text956"><tspan
           sodipodi:role="line"
           id="tspan954"
           x="60.998222"
           y="163.91582"
           style="font-style:normal;font-variant:normal;font-weight:bold;font-stretch:normal;font-size:85.967px;font-family:'Century Gothic';-inkscape-font-specification:'Century Gothic Bold';stroke-width:0.264583">Roca-Sastre</tspan></text>
      <text
         inkscape:export-ydpi="70.065117"
         inkscape:export-xdpi="70.065117"
         xml:space="preserve"
         style="font-size:77.2583px;line-height:1.25;font-family:'Century Gothic';-inkscape-font-specification:'Century Gothic';letter-spacing:0px;word-spacing:0px;fill:#00808c;fill-opacity:1;stroke-width:0.264583"
         x="67.602837"
         y="243.13493"
         id="text960"><tspan
           sodipodi:role="line"
           id="tspan958"
           x="67.602837"
           y="243.13493"
           style="font-size:77.2583px;fill:#00808c;fill-opacity:1;stroke-width:0.264583">Translator</tspan></text>
      <g
         inkscape:export-ydpi="74.259743"
         inkscape:export-xdpi="74.259743"
         style="stroke-width:0.636761"
         id="g1267"
         transform="matrix(1.6230589,0,0,1.5195424,2099.0315,-483.88447)">
        <path
           sodipodi:nodetypes="ccsscssssssssssssssssscssssscsssssccssssscss"
           id="path1047"
           d="m -1337.5781,486.05542 c -11.8985,-2.69815 -24.3648,-11.66005 -29.4244,-21.15303 -7.0799,-13.28294 -3.4257,-26.39882 2.1471,-37.47559 3.0707,-6.10317 8.9054,-14.14997 10.4997,-13.53807 1.5037,0.57693 9.3913,-6.86493 0.6983,14.68759 -3.3171,12.80045 6.1331,26.85779 21.7636,32.37469 6.4052,2.26078 19.0519,2.83805 26.0481,1.18898 12.972,-3.05745 19.9095,-9.96181 19.9095,-19.81395 0,-8.94642 -5.5265,-14.3734 -18.803,-18.46492 -6.1973,-1.90986 -22.5805,-4.40778 -36.1506,-5.51178 -12.1055,-0.98488 -16.6474,-2.26893 -19.9016,-5.62646 -4.9277,-5.08427 -4.7897,-11.35797 0.3631,-16.51101 2.7204,-2.72019 9.5179,-6.44347 11.843,-6.48671 0.6379,-0.0117 -0.7542,-1.07403 -3.0939,-2.36041 -12.3786,-6.80585 -19.2132,-19.15718 -18.3547,-33.16899 0.4979,-8.12326 2.5082,-13.57035 7.3872,-20.01496 12.2104,-16.12875 36.9106,-22.85562 55.4409,-15.09883 2.5522,1.06845 5.5462,2.31839 6.6533,2.77766 1.7107,0.70976 2.407,0.53922 4.6407,-1.13668 7.1309,-5.35055 15.846,-7.41928 20.694,-4.91232 4.8366,2.50109 6.8735,8.49311 4.249,12.49871 -3.8245,5.83706 -15.3954,5.44972 -18.5343,-0.62046 -0.7774,-1.50309 -1.5768,-2.12574 -2.3495,-1.82933 -0.644,0.24732 -1.3207,0.44942 -1.5035,0.44942 -0.1841,0 1.1594,1.83146 2.9827,4.06993 6.1514,7.55226 8.7461,16.55497 7.4481,25.84095 -3.051,21.82787 -21.8782,36.227 -50.9647,38.97807 -18.3306,1.7338 -20.0661,1.88845 -22.7317,3.15343 -2.4331,1.15457 -2.5009,2.12013 -2.3137,4.0449 0.1664,1.70034 0.6138,2.41463 2.6989,3.49756 3.4873,1.81119 7.5025,1.73153 24.2802,-1.53607 31.7816,-6.18966 47.1806,-0.92983 53.1871,18.16701 2.5057,7.96657 2.3318,20.15442 -0.4072,28.52425 -5.2202,15.95164 -17.4361,28.76387 -32.2834,33.85889 -6.4069,2.19853 -19.0412,2.75354 -26.1235,1.14756 z m 16.1475,-99.62413 c 3.4904,-2.32881 8.6169,-10.08231 10.6533,-16.11236 1.3673,-4.04782 1.643,-6.69492 1.643,-15.7668 0,-14.87699 -2.1648,-22.68351 -8.0114,-28.88922 -8.2476,-8.75465 -17.757,-5.27579 -24.2309,8.86442 -1.6013,3.49798 -2.1585,6.19128 -2.5345,12.24822 -1.0187,16.41845 1.0606,27.59166 6.45,34.65769 5.1089,6.69813 10.8158,8.47741 16.0305,4.99805 z"
           style="fill:#000000;stroke-width:0.636761" />
        <path
           id="path1255"
           d="m -1334.0325,490.96175 c -1.7016,-1.75582 -2.2161,-2.70714 -1.4636,-2.70714 0.6381,0 2.341,1.21822 3.7843,2.70714 1.7016,1.75582 2.2161,2.70713 1.4633,2.70713 -0.6378,0 -2.3407,-1.21821 -3.784,-2.70713 z m 4.6409,0 c -1.443,-1.48892 -2.2758,-2.70714 -1.8505,-2.70714 0.4256,0 1.9542,1.21822 3.3975,2.70714 1.443,1.48892 2.2759,2.70713 1.8505,2.70713 -0.4256,0 -1.9543,-1.21821 -3.3975,-2.70713 z m 4.2619,0.39479 c -1.2184,-1.27177 -1.9761,-2.55164 -1.6835,-2.84412 0.5657,-0.56573 5.1564,3.46519 5.1564,4.52771 0,1.22327 -1.2847,0.60054 -3.4729,-1.68359 z m -13.9666,-1.64966 c -1.6817,-1.7537 -2.3614,-2.82782 -1.5104,-2.38695 1.9864,1.02928 6.3316,5.57549 5.3292,5.57549 -0.4189,0 -2.1372,-1.43483 -3.8188,-3.18854 z m 17.826,0.86814 c -1.2225,-1.27622 -1.875,-2.32041 -1.4493,-2.32041 0.4252,0 1.7738,1.04419 2.9964,2.32041 1.2228,1.27622 1.875,2.3204 1.4497,2.3204 -0.4254,0 -1.774,-1.04418 -2.9968,-2.3204 z m -23.9384,-2.28074 c -2.5889,-2.62846 -3.2768,-3.69867 -2.1954,-3.4159 2.0714,0.54167 8.6613,7.24359 7.1227,7.24359 -0.6364,0 -2.8537,-1.72247 -4.9273,-3.82769 z m 27.4958,1.9756 c -0.9571,-1.01864 -1.4189,-2.05044 -1.0266,-2.2929 0.3923,-0.24234 1.7016,0.59098 2.9099,1.85209 1.5274,1.59427 1.8402,2.2929 1.0266,2.2929 -0.6434,0 -1.9531,-0.83345 -2.9099,-1.85209 z m 3.7937,-0.85201 c -0.9978,-1.06185 -1.642,-2.10239 -1.4321,-2.31234 0.2104,-0.20989 1.3785,0.65884 2.597,1.93061 1.2185,1.2718 1.8628,2.31234 1.4322,2.31234 -0.431,0 -1.5997,-0.86876 -2.5971,-1.93061 z m 3.0712,-0.79732 c -2.4225,-2.57886 -1.2266,-3.51084 1.2837,-1.00037 1.0951,1.09486 1.657,2.19687 1.2492,2.44889 -0.4079,0.252 -1.5474,-0.39979 -2.5329,-1.44852 z m 3.1137,-1.52616 c -0.9992,-1.06351 -1.4687,-1.93364 -1.0433,-1.93364 0.4253,0 1.5909,0.87013 2.59,1.93364 0.9992,1.06355 1.4688,1.93368 1.0431,1.93368 -0.4254,0 -1.5909,-0.87013 -2.5898,-1.93368 z m 2.3203,-1.54691 c -1.3606,-1.44832 -1.5216,-1.93368 -0.6414,-1.93368 1.1488,0 3.7351,2.31822 3.7351,3.34814 0,1.06792 -1.335,0.45744 -3.0937,-1.41446 z m -29.0803,-104.99843 c -5.239,-5.54737 -5.526,-6.64447 -0.4616,-1.7645 2.6347,2.53913 4.7907,4.71451 4.7907,4.83416 0,0.91726 -1.7071,-0.29336 -4.3291,-3.06966 z m -0.1696,-3.95651 c -5.8832,-5.99918 -8.1821,-8.99908 -6.8965,-8.99908 0.114,0 3.8492,3.65465 8.3009,8.12141 4.4516,4.46678 7.5551,8.12142 6.8964,8.12142 -0.6583,0 -4.3937,-3.25967 -8.3008,-7.24375 z m -4.6224,-9.22173 c -3.9558,-4.03085 -4.3716,-5.79609 -0.4841,-2.05613 2.4519,2.35888 4.6911,5.37264 3.9921,5.37264 -0.1403,0 -1.7177,-1.49242 -3.508,-3.31651 z m -1.321,-5.19163 c -3.2555,-3.33369 -3.1906,-5.31245 0.073,-2.25901 2.115,1.9784 3.7389,4.50476 3.2256,5.01819 -0.1695,0.16838 -1.6535,-1.07316 -3.2996,-2.75918 z m -0.3867,-5.02756 c -1.4311,-1.47618 -2.4276,-2.85798 -2.2148,-3.07068 0.2134,-0.21283 1.5572,0.82104 2.9883,2.29722 1.4306,1.47617 2.4272,2.858 2.2143,3.07071 -0.2134,0.21282 -1.5572,-0.82105 -2.9878,-2.29725 z m 0,-3.86733 c -2.753,-2.84032 -2.6963,-4.76038 0.067,-2.25986 1.7748,1.60623 3.3326,4.14563 2.8433,4.63493 -0.1696,0.16985 -1.4795,-0.89889 -2.9102,-2.37507 z m 0,-4.64081 c -1.4311,-1.47617 -2.4276,-2.85801 -2.2148,-3.07071 0.2134,-0.21282 1.5572,0.82105 2.9883,2.29722 1.4306,1.47621 2.4272,2.85802 2.2143,3.07071 -0.2134,0.21282 -1.5572,-0.82105 -2.9878,-2.29722 z m 0.3867,-3.48063 c -1.2144,-1.26732 -2.0338,-2.47829 -1.821,-2.69099 0.2134,-0.21282 1.3801,0.65018 2.5942,1.91754 1.2144,1.26735 2.0338,2.47829 1.821,2.691 -0.2134,0.21282 -1.3801,-0.65018 -2.5942,-1.91755 z m 0.58,-3.6595 c -0.9571,-0.64348 -1.7403,-1.72871 -1.7403,-2.41164 0,-0.93114 0.5215,-0.72002 2.0861,0.84438 2.4021,2.40214 2.2074,3.28388 -0.3458,1.56726 z m 0.5799,-3.68844 c -0.9959,-1.06015 -1.6368,-2.10159 -1.4239,-2.31429 0.2134,-0.21283 1.2015,0.48065 2.1975,1.54083 0.9959,1.06015 1.6368,2.10159 1.4242,2.3143 -0.2134,0.21282 -1.2018,-0.48066 -2.1978,-1.54084 z m 0.828,-3.0361 c -0.9449,-1.00555 -1.394,-2.02828 -0.9984,-2.27272 0.3955,-0.2444 1.4921,0.37819 2.4366,1.38373 0.9448,1.00552 1.3939,2.02825 0.9984,2.27273 -0.3956,0.24439 -1.4921,-0.37822 -2.4366,-1.38374 z m 1.4897,-3.1547 c -0.9975,-1.06184 -1.4591,-1.9306 -1.0253,-1.9306 0.9879,0 3.7314,2.96883 3.2181,3.48229 -0.2076,0.20843 -1.1954,-0.48984 -2.1928,-1.55169 z m 1.9606,-1.90409 c -2.0331,-2.2465 -1.0518,-3.51562 1.0162,-1.31431 0.9808,1.04393 1.4556,2.1006 1.0551,2.34815 -0.4009,0.24761 -1.3328,-0.21779 -2.0713,-1.03384 z m 1.9066,-2.73672 c -0.9973,-1.06185 -1.4587,-1.93061 -1.0252,-1.93061 0.9878,0 3.7314,2.96884 3.2181,3.48229 -0.2076,0.20843 -1.195,-0.48983 -2.1929,-1.55168 z m 2.3776,-1.48611 c -0.9445,-1.00555 -1.3938,-2.02828 -0.9983,-2.27273 0.3956,-0.24439 1.4921,0.37819 2.4369,1.38374 0.9446,1.00551 1.3938,2.02824 0.9984,2.27273 -0.3959,0.24439 -1.4922,-0.37822 -2.437,-1.38374 z m 28.1732,158.88528 c -2.1759,-2.4043 -0.6004,-2.88522 1.7505,-0.53432 1.528,1.528 1.7607,2.086 0.8697,2.086 -0.6689,0 -1.8478,-0.69827 -2.6202,-1.55168 z m 2.7114,-1.92894 c -1.2439,-1.3239 -1.4692,-1.92599 -0.7151,-1.90935 1.1697,0.0263 4.3547,3.84302 3.2063,3.84302 -0.3709,0 -1.492,-0.87012 -2.4912,-1.93367 z m 2.7029,-1.16492 c -0.7723,-0.85344 -1.1766,-1.77945 -0.8983,-2.05787 0.5642,-0.56403 3.6097,1.93 3.6097,2.95595 0,1.12917 -1.252,0.71444 -2.7114,-0.89808 z m 2.7114,-1.92895 c -0.9959,-1.06015 -1.6368,-2.10159 -1.4243,-2.31429 0.2134,-0.21282 1.2019,0.48066 2.1978,1.54084 0.9958,1.06015 1.6368,2.10159 1.424,2.31429 -0.2134,0.21282 -1.2015,-0.48065 -2.1975,-1.54084 z m 1.9294,-1.9384 c -0.7723,-0.85342 -1.1766,-1.77945 -0.8983,-2.05784 0.5642,-0.56406 3.6097,1.93 3.6097,2.95591 0,1.12917 -1.2521,0.71444 -2.7114,-0.89807 z m 2.3203,-2.32042 c -2.0677,-2.28491 -0.9609,-2.64428 1.1673,-0.37895 0.9977,1.06186 1.459,1.93064 1.0255,1.93064 -0.4338,0 -1.4205,-0.69827 -2.1928,-1.55169 z m 1.9923,-1.87116 c -0.9446,-1.00552 -1.3939,-2.02825 -0.9984,-2.27273 0.3956,-0.24439 1.4921,0.37822 2.4366,1.38374 0.9449,1.00554 1.3942,2.02827 0.9984,2.27272 -0.3956,0.24439 -1.4922,-0.3782 -2.4366,-1.38373 z m 1.875,-2.76964 c -2.0677,-2.28492 -0.9607,-2.64428 1.1673,-0.37895 0.9977,1.06184 1.4591,1.93063 1.0255,1.93063 -0.4339,0 -1.4204,-0.69827 -2.1928,-1.55168 z m 1.9841,-1.87989 c -1.0212,-1.08713 -1.6138,-2.2197 -1.3167,-2.5168 0.7399,-0.73998 3.8468,2.47394 3.4735,3.59338 -0.1783,0.53731 -1.0483,0.10349 -2.1568,-1.07658 z m 1.5008,-3.14292 c -0.9992,-1.06351 -1.4684,-1.93368 -1.043,-1.93368 0.4253,0 1.5909,0.87017 2.5901,1.93368 0.9991,1.06352 1.4683,1.93368 1.043,1.93368 -0.4254,0 -1.5909,-0.87016 -2.5901,-1.93368 z m 1.6011,-2.26264 c -0.9445,-1.00554 -1.3938,-2.02825 -0.9983,-2.27273 0.3959,-0.24439 1.4924,0.37823 2.4369,1.38374 0.9445,1.00554 1.3938,2.02825 0.9983,2.27273 -0.3955,0.24439 -1.492,-0.37822 -2.4369,-1.38374 z m 1.3851,-2.69831 c -1.0041,-0.81421 -1.5543,-1.75293 -1.2222,-2.08604 0.3317,-0.33312 1.542,0.33306 2.6895,1.48036 2.3825,2.38258 1.2838,2.83608 -1.4673,0.60568 z m 1.6546,-2.77373 c -0.996,-1.06017 -1.6368,-2.10159 -1.424,-2.31429 0.2134,-0.21282 1.2015,0.48065 2.1975,1.54081 0.9961,1.06018 1.6368,2.10162 1.4243,2.31432 -0.2134,0.21282 -1.2018,-0.48069 -2.1978,-1.54084 z m -64.8903,-10.01102 c -5.3398,-5.29339 -9.5267,-9.80617 -9.3045,-10.02842 0.2222,-0.22218 4.9068,4.10867 10.4103,9.6243 5.5035,5.51562 9.6903,10.02841 9.3041,10.02841 -0.3858,0 -5.0705,-4.33093 -10.4099,-9.62429 z m 65.7916,7.05312 c -0.9288,-0.98873 -1.4503,-2.03608 -1.1591,-2.32748 0.5715,-0.57142 4.1251,2.43217 4.1251,3.48653 0,1.15627 -1.2497,0.66793 -2.966,-1.15905 z m -65.9516,-3.56443 c -1.5134,-1.24757 -3.7328,-3.59697 -4.9316,-5.22092 -1.5871,-2.14971 -0.7815,-1.59156 2.9622,2.05254 2.8283,2.75285 5.1425,5.10228 5.1425,5.22092 0,0.46925 -0.5274,0.12833 -3.1731,-2.05254 z m 67.3709,0.33458 c -0.996,-1.06016 -1.6368,-2.1016 -1.4243,-2.3143 0.2134,-0.21282 1.2018,0.48066 2.1978,1.54083 0.996,1.06016 1.6367,2.1016 1.424,2.31431 -0.2134,0.21281 -1.2015,-0.48066 -2.1975,-1.54084 z m 0.803,-3.06242 c -0.9582,-1.02001 -1.6125,-2.24445 -1.4535,-2.72099 0.1578,-0.47653 1.2688,0.15641 2.4668,1.4068 1.1977,1.25029 1.8519,2.47474 1.4534,2.72099 -0.3984,0.24615 -1.5084,-0.38681 -2.4667,-1.4068 z m 0.7467,-3.89576 c -0.9975,-1.06182 -1.6421,-2.10238 -1.432,-2.31234 0.2106,-0.20989 1.3787,0.65887 2.5972,1.93064 1.2184,1.27177 1.8628,2.31234 1.4318,2.31234 -0.4309,0 -1.5993,-0.8688 -2.597,-1.93064 z m 0.4276,-3.43792 c -1.2383,-1.2925 -2.0051,-2.59621 -1.7043,-2.89715 0.7437,-0.74367 4.6279,3.23059 4.2541,4.35255 -0.1696,0.51234 -1.2603,-0.10964 -2.5498,-1.4554 z m -24.3976,-7.38329 c -4.4573,-4.47248 -7.5814,-8.13181 -6.9424,-8.13181 1.512,0 15.7153,14.25696 15.3362,15.39429 -0.1579,0.47814 -3.9366,-2.78999 -8.3938,-7.26248 z m -51.6877,3.23136 c -3.9793,-4.05457 -4.4029,-6.59849 -0.4684,-2.81338 2.8039,2.69749 4.5684,5.25271 4.0118,5.80939 -0.1667,0.16722 -1.7619,-1.18085 -3.5434,-2.99601 z m 76.5311,-0.1488 c -3.3431,-3.80787 -3.0484,-4.46585 0.4386,-0.9788 1.5742,1.57402 2.6646,3.05917 2.4234,3.30031 -0.2397,0.24117 -1.5289,-0.80351 -2.862,-2.32151 z m -21.7865,-4.73022 c -2.3249,-2.38941 -3.5013,-3.97393 -2.6138,-3.52116 2.2528,1.14934 8.2824,7.86558 7.0614,7.86558 -0.1199,0 -2.1224,-1.95499 -4.4476,-4.34442 z m 21.7795,0.96279 c -1.4243,-1.46969 -2.4588,-3.06473 -2.2989,-3.54457 0.1608,-0.47983 1.4561,0.33003 2.8806,1.79968 1.4246,1.46965 2.4592,3.06468 2.2993,3.54453 -0.1608,0.47986 -1.4565,-0.32999 -2.881,-1.79964 z m -77.0559,-1.25918 c -1.2143,-1.26736 -2.0338,-2.47833 -1.8209,-2.69103 0.2134,-0.21281 1.3801,0.65021 2.5945,1.91754 1.214,1.26736 2.0334,2.47833 1.8206,2.69103 -0.2134,0.21282 -1.3801,-0.65021 -2.5942,-1.91754 z m 42.1541,-4.25408 c -1.8788,-1.91436 -3.068,-3.48063 -2.6428,-3.48063 0.4257,0 2.311,1.56627 4.1895,3.48063 1.8789,1.91432 3.0681,3.48059 2.6427,3.48059 -0.4256,0 -2.3106,-1.56627 -4.1894,-3.48059 z m -41.5893,0.96298 c -2.5023,-2.66367 -2.2226,-4.51926 0.3008,-1.99574 1.1144,1.11429 1.8906,2.43228 1.7251,2.92892 -0.1842,0.55103 -0.9732,0.18739 -2.0259,-0.93318 z m 35.5497,-2.492 c -1.9958,-1.90448 -3.1736,-3.47075 -2.617,-3.4806 0.5566,-0.009 2.645,1.54028 4.6408,3.44475 1.9961,1.90447 3.1736,3.47074 2.617,3.4806 -0.5563,0.009 -2.6448,-1.54026 -4.6408,-3.44475 z m -5.1758,-1.17811 c -1.6617,-1.70165 -2.6731,-3.0939 -2.2475,-3.0939 0.4254,0 2.1329,1.39225 3.7945,3.0939 1.6616,1.70162 2.6732,3.09386 2.2475,3.09386 -0.4254,0 -2.1329,-1.39224 -3.7945,-3.09386 z m -4.8455,-0.36583 c -1.8615,-1.73086 -2.4617,-2.69366 -1.6873,-2.70714 0.6609,-0.0117 2.3825,1.19728 3.8258,2.6862 3.4019,3.50992 1.6326,3.52725 -2.1385,0.0205 z m -24.9329,-0.0205 c -0.996,-1.06015 -1.6371,-2.10159 -1.4243,-2.31429 0.2134,-0.21282 1.2015,0.48068 2.1975,1.54083 0.9961,1.06018 1.6371,2.10159 1.4243,2.3143 -0.2134,0.21282 -1.2018,-0.48065 -2.1975,-1.54084 z m 20.11,-0.77346 c -1.4429,-1.48891 -2.2758,-2.70714 -1.8505,-2.70714 0.4257,0 1.9543,1.21823 3.3975,2.70714 1.443,1.48892 2.2758,2.70714 1.8505,2.70714 -0.4256,0 -1.9542,-1.21822 -3.3975,-2.70714 z m -5.2927,-0.88306 c -1.4982,-1.50511 -2.1314,-2.59753 -1.5052,-2.59753 0.5939,0 2.2608,1.21821 3.7041,2.70713 1.4728,1.5197 2.1332,2.65908 1.5052,2.59754 -0.6151,-0.0602 -2.2819,-1.27846 -3.7041,-2.70714 z m -8.6298,-0.66388 c -1.4429,-1.48892 -2.2758,-2.70714 -1.8504,-2.70714 0.4256,0 1.9543,1.21822 3.3975,2.70714 1.443,1.48894 2.2758,2.70716 1.8505,2.70716 -0.4256,0 -1.9543,-1.21822 -3.3976,-2.70716 z m 3.8673,0 c -1.4429,-1.48892 -2.2757,-2.70714 -1.8502,-2.70714 0.4254,0 1.954,1.21822 3.3973,2.70714 1.4432,1.48894 2.2758,2.70716 1.8505,2.70716 -0.4254,0 -1.9543,-1.21822 -3.3976,-2.70716 z m -9.2388,-0.72961 c -2.0619,-2.12732 -2.2639,-2.58024 -1.0031,-2.25055 2.1045,0.55036 6.3115,4.91383 4.7376,4.91383 -0.6344,0 -2.3151,-1.19848 -3.7345,-2.66328 z m -7.7773,-20.1539 c -1.3407,-1.42706 -1.5126,-1.93365 -0.6564,-1.93365 0.6382,0 1.9777,0.87014 2.9769,1.93365 1.3406,1.42709 1.5125,1.93367 0.6563,1.93367 -0.6382,0 -1.9776,-0.87013 -2.9768,-1.93367 z m 4.254,-0.38673 c -1.2225,-1.27621 -1.875,-2.3204 -1.4497,-2.3204 0.4256,0 1.7739,1.04419 2.9967,2.3204 1.2226,1.27624 1.875,2.3204 1.4497,2.3204 -0.4257,0 -1.7739,-1.04416 -2.9967,-2.3204 z m 3.0937,-0.77346 c -1.5233,-1.59018 -1.8577,-2.32041 -1.0626,-2.32041 0.6379,0 2.1604,1.04419 3.3833,2.32041 1.5233,1.59018 1.858,2.32041 1.0628,2.32041 -0.6381,0 -2.1606,-1.04419 -3.3835,-2.32041 z m 4.2544,-0.38673 c -0.9992,-1.06351 -1.4686,-1.93368 -1.0434,-1.93368 0.4254,0 1.591,0.87017 2.5901,1.93368 0.9993,1.06352 1.4687,1.93368 1.0431,1.93368 -0.4254,0 -1.5909,-0.87016 -2.5898,-1.93368 z m 3.8477,-0.0205 c -2.4228,-2.57886 -1.2269,-3.51085 1.2837,-1.00037 1.0948,1.09485 1.657,2.19686 1.2491,2.44889 -0.4078,0.25198 -1.5476,-0.3998 -2.5328,-1.44852 z m 3.884,-0.75572 c -0.9975,-1.06184 -1.4591,-1.9306 -1.0253,-1.9306 0.9879,0 3.7314,2.9688 3.2181,3.48229 -0.2076,0.20843 -1.1954,-0.48984 -2.1928,-1.55169 z m 3.4834,-0.38368 c -1.1111,-1.22798 -1.1679,-1.54692 -0.2748,-1.54692 1.2132,0 2.9819,1.46804 2.9819,2.47508 0,1.09596 -1.2694,0.66085 -2.7074,-0.92816 z m 3.8674,-0.77347 c -0.7701,-0.8508 -1.0519,-1.54694 -0.6265,-1.54694 0.4253,0 1.4035,0.69614 2.1735,1.54694 0.77,0.85082 1.0518,1.54695 0.6264,1.54695 -0.4253,0 -1.4034,-0.69613 -2.1734,-1.54695 z m 25.9113,-3.48062 c -2.7406,-2.76513 -4.635,-5.02754 -4.2096,-5.02754 0.4256,0 3.016,2.26241 5.7564,5.02754 2.7406,2.76517 4.6349,5.02757 4.2095,5.02757 -0.4256,0 -3.016,-2.2624 -5.7563,-5.02757 z m -22.8173,2.70717 c -1.148,-1.2685 -1.1913,-1.54695 -0.2397,-1.54695 0.6381,0 1.7902,0.69611 2.5602,1.54695 1.1481,1.2685 1.1914,1.54692 0.2398,1.54692 -0.6382,0 -1.79,-0.69612 -2.56,-1.54692 z m 22.4305,0.79977 c -2.2848,-0.95877 -7.9009,-6.98753 -6.5091,-6.98753 0.6341,0 2.867,1.7403 4.9621,3.86736 2.0952,2.12702 3.6484,3.84527 3.4516,3.81829 -0.1959,-0.0263 -1.0538,-0.34112 -1.9046,-0.69812 z m -18.5632,-1.57326 c -0.77,-0.85081 -1.0518,-1.54691 -0.6264,-1.54691 0.4252,0 1.4034,0.6961 2.1731,1.54691 0.77,0.85081 1.0521,1.54694 0.6268,1.54694 -0.4256,0 -1.4035,-0.69613 -2.1735,-1.54694 z m 3.4806,-0.38673 c -0.9993,-1.06351 -1.4951,-1.9221 -1.1016,-1.90792 0.8492,0.0304 4.1953,2.73058 4.1953,3.38546 0,1.00824 -1.3758,0.35116 -3.0937,-1.47754 z m 3.4804,-0.38673 c -1.5233,-1.59019 -1.8577,-2.3204 -1.0628,-2.3204 0.6381,0 2.1606,1.04419 3.3835,2.3204 1.5233,1.59018 1.8577,2.3204 1.0628,2.3204 -0.6381,0 -2.1606,-1.04418 -3.3835,-2.3204 z m 4.2656,-0.37516 c -1.4372,-1.48254 -2.4399,-2.86841 -2.2286,-3.07965 0.2106,-0.21136 1.7374,1.00171 3.3914,2.69553 1.6538,1.69385 2.6568,3.07968 2.2285,3.07968 -0.4282,0 -1.9545,-1.21301 -3.3913,-2.69556 z m 7.3322,-5.04388 c -2.1758,-2.4043 -0.6004,-2.88522 1.7505,-0.53433 1.5281,1.52801 1.7608,2.08602 0.8701,2.08602 -0.6689,0 -1.8482,-0.69824 -2.6206,-1.55169 z m 3.0939,-1.54692 c -2.0678,-2.28494 -0.9607,-2.64428 1.1675,-0.37895 0.9975,1.06185 1.4588,1.93064 1.0252,1.93064 -0.4335,0 -1.4204,-0.69827 -2.1927,-1.55169 z m 2.3205,-1.54694 c -0.7723,-0.85342 -1.1763,-1.77944 -0.8981,-2.05783 0.5639,-0.56406 3.6095,1.92999 3.6095,2.95591 0,1.12917 -1.2521,0.71443 -2.7114,-0.89808 z m 2.7085,-1.93198 c -0.9975,-1.06185 -1.4588,-1.93061 -1.0252,-1.93061 0.9881,0 3.7313,2.96881 3.2179,3.48229 -0.2075,0.20843 -1.195,-0.48983 -2.1927,-1.55168 z m 1.9323,-1.93538 c -0.7723,-0.85341 -1.1764,-1.77944 -0.8981,-2.05782 0.5639,-0.56403 3.6095,1.92999 3.6095,2.95594 0,1.12914 -1.2521,0.71443 -2.7114,-0.89812 z m 2.3203,-2.3204 c -2.0677,-2.28491 -0.9606,-2.64428 1.1676,-0.37892 0.9974,1.06184 1.4587,1.9306 1.0252,1.9306 -0.4336,0 -1.4205,-0.69824 -2.1928,-1.55168 z m 1.9352,-1.93195 c -0.9974,-1.06185 -1.459,-1.93064 -1.0252,-1.93064 0.9878,0 3.7314,2.96883 3.2177,3.48229 -0.2076,0.20844 -1.195,-0.48984 -2.1925,-1.55165 z m 1.7266,-2.67392 c -0.9665,-0.80588 -1.4521,-1.65374 -1.0793,-1.8841 0.3727,-0.23036 1.485,0.4406 2.4719,1.49102 2.106,2.24171 1.1481,2.51206 -1.3926,0.39308 z m 1.7525,-2.35535 c -2.0677,-2.28491 -0.9607,-2.64428 1.1673,-0.37892 0.9977,1.06184 1.4591,1.9306 1.0255,1.9306 -0.4339,0 -1.4204,-0.69824 -2.1928,-1.55168 z m 1.6712,-2.18318 c -2.0951,-2.31506 -1.5402,-3.74051 0.6534,-1.67941 1.9564,1.83765 2.4761,3.09387 1.2802,3.09387 -0.3593,0 -1.2296,-0.6365 -1.9336,-1.41446 z m 1.4229,-3.23109 c -2.068,-2.28491 -0.961,-2.64428 1.1672,-0.37895 0.9975,1.06185 1.4588,1.93063 1.0252,1.93063 -0.4334,0 -1.4201,-0.69827 -2.1924,-1.55168 z m 1.2105,-2.65334 c -1.0214,-1.08713 -1.614,-2.2197 -1.317,-2.5168 0.7402,-0.73998 3.8469,2.47391 3.4739,3.59337 -0.1784,0.53729 -1.0483,0.10349 -2.1569,-1.07657 z m 1.1062,-3.53772 c -1.2184,-1.2718 -1.8628,-2.31233 -1.4318,-2.31233 0.9951,0 4.5397,3.73243 4.0289,4.24293 -0.2105,0.20991 -1.3786,-0.65883 -2.5971,-1.9306 z m 0.8986,-2.96328 c -1.1977,-1.25029 -1.8519,-2.47473 -1.4535,-2.72099 0.9279,-0.57347 4.303,2.98009 3.9202,4.12779 -0.1578,0.47654 -1.2687,-0.15668 -2.4667,-1.4068 z m 0.656,-3.98987 c -1.214,-1.26736 -2.0335,-2.4783 -1.8206,-2.69103 0.2134,-0.21282 1.3801,0.65022 2.5941,1.91755 1.2144,1.26735 2.0339,2.47829 1.821,2.69102 -0.2134,0.21282 -1.3801,-0.65021 -2.5945,-1.91754 z m 0.1433,-3.7163 c -2.7313,-2.85105 -2.7956,-4.95914 -0.073,-2.4129 2.2837,2.13585 3.7828,4.58225 2.8082,4.58225 -0.3608,0 -1.5912,-0.97622 -2.7346,-2.16935 z m -0.035,-4.77365 c -3.8639,-4.27688 -3.5551,-4.98901 0.4337,-1.00022 1.7871,1.78713 3.054,3.44452 2.8155,3.68306 -0.2397,0.23854 -1.7005,-0.96874 -3.2492,-2.68284 z m -1.1557,-5.01267 c -4.3809,-4.75303 -4.0616,-5.50854 0.4297,-1.01688 2.0002,2.00016 3.4435,3.83002 3.207,4.06635 -0.2368,0.23621 -1.8727,-1.13592 -3.6367,-3.04947 z m -0.8623,-4.64931 c -2.0873,-2.12703 -2.9802,-3.50521 -2.2706,-3.50521 1.4971,0 6.3802,5.00226 5.999,6.14535 -0.1579,0.47576 -1.8362,-0.71228 -3.7284,-2.64014 z m 3.4489,-1.19287 c -1.2184,-1.27177 -1.8631,-2.31234 -1.4321,-2.31234 0.9954,0 4.5396,3.73244 4.0292,4.24298 -0.2105,0.20989 -1.3787,-0.65884 -2.5971,-1.93064 z m 2.7149,-1.15212 c -1.3608,-1.44829 -1.5216,-1.93368 -0.6417,-1.93368 1.1492,0 3.7355,2.31821 3.7355,3.34814 0,1.06793 -1.3354,0.45745 -3.0938,-1.41446 z m 3.0938,-1.54694 c -0.9992,-1.06352 -1.4687,-1.93369 -1.0431,-1.93369 0.4254,0 1.5909,0.87017 2.5901,1.93369 0.9989,1.06351 1.4684,1.93367 1.0431,1.93367 -0.4254,0 -1.591,-0.87016 -2.5901,-1.93367 z m 1.9294,-1.93842 c -0.7724,-0.85341 -1.1766,-1.77944 -0.8981,-2.05783 0.564,-0.56403 3.6095,1.92999 3.6095,2.95591 0,1.12917 -1.2521,0.71444 -2.7114,-0.89808 z m 1.9378,-2.7024 c -0.9991,-1.06351 -1.4683,-1.93367 -1.043,-1.93367 0.4254,0 1.5909,0.87016 2.5902,1.93367 0.9989,1.06351 1.4683,1.93368 1.0429,1.93368 -0.4253,0 -1.5908,-0.87017 -2.5901,-1.93368 z"
           style="fill:#00808c;fill-opacity:1;stroke-width:0.636761"
           sodipodi:nodetypes="ssssssscsssssssssscssscsssssssssscssscsscsssssssssssssssssssssscccccccsccccscccccccscscssscsscscssscsssscssssscscccssccssssscssscssscscsscssssssssssscsscsscssssssscsssscssscscssssssscsssssssscscsscsssscssssscssscssscscsccssssscscsscccssscsssscsscccsssssscscccccscccssscsscsssssssssssscsscsssssssssscscscssssssssssscscssccssssscssscssssssssscsssssssssscscscccsscsssssssssssssscssssssssssscssssscsscccscsssssscssscscsccccccccsscccscccscccsccsscscsscsssssscsssscss" />
      </g>
    </g>
  </g>
</svg>
