<?xml version="1.0" encoding="UTF-8" standalone="no"?>
<svg
   xmlns:dc="http://purl.org/dc/elements/1.1/"
   xmlns:cc="http://creativecommons.org/ns#"
   xmlns:rdf="http://www.w3.org/1999/02/22-rdf-syntax-ns#"
   xmlns:svg="http://www.w3.org/2000/svg"
   xmlns="http://www.w3.org/2000/svg"
   xmlns:sodipodi="http://sodipodi.sourceforge.net/DTD/sodipodi-0.dtd"
   xmlns:inkscape="http://www.inkscape.org/namespaces/inkscape"
   version="1.1"
   id="Capa_1"
   x="0px"
   y="0px"
   width="799.99902"
   height="541.93597"
   viewBox="0 0 799.99902 541.93597"
   enable-background="new 0 0 800 800"
   xml:space="preserve"
   sodipodi:docname="japan.svg"
   inkscape:version="1.0.2-2 (e86c870879, 2021-01-15)"><metadata
   id="metadata19"><rdf:RDF><cc:Work
       rdf:about=""><dc:format>image/svg+xml</dc:format><dc:type
         rdf:resource="http://purl.org/dc/dcmitype/StillImage" /><dc:title></dc:title></cc:Work></rdf:RDF></metadata><defs
   id="defs17" /><sodipodi:namedview
   pagecolor="#ffffff"
   bordercolor="#666666"
   borderopacity="1"
   objecttolerance="10"
   gridtolerance="10"
   guidetolerance="10"
   inkscape:pageopacity="0"
   inkscape:pageshadow="2"
   inkscape:window-width="1920"
   inkscape:window-height="1027"
   id="namedview15"
   showgrid="false"
   inkscape:zoom="1.0975"
   inkscape:cx="294.74435"
   inkscape:cy="247.3974"
   inkscape:window-x="-8"
   inkscape:window-y="-8"
   inkscape:window-maximized="1"
   inkscape:current-layer="Capa_1" />
<g
   id="g12"
   transform="translate(1.1653847e-5,-129.03201)">
	<path
   fill="#ffffff"
   d="M 116.129,154.839 H 25.807 V 645.161 H 774.194 V 154.839 H 167.742 c -7.126,0 -12.903,-5.775 -12.903,-12.903 h -25.807 c 0,7.127 -5.777,12.903 -12.903,12.903 z M 400,258.064 c 78.264,0 141.936,63.673 141.936,141.936 0,78.263 -63.672,141.936 -141.936,141.936 -78.264,0 -141.936,-63.673 -141.936,-141.936 0,-78.262 63.672,-141.936 141.936,-141.936 z"
   id="path2" />
	<path
   d="M 787.097,129.032 H 167.742 c -7.126,0 -12.903,5.775 -12.903,12.903 0,7.128 5.777,12.903 12.903,12.903 H 774.193 V 645.16 H 25.807 V 154.839 h 196.01676 c 7.126,0 12.903,-5.775 12.903,-12.903 0,-7.128 -5.777,-12.903 -12.903,-12.903 H 12.903 C 5.777,129.032 0,134.808 0,141.936 v 516.129 c 0,7.128 5.777,12.903 12.903,12.903 h 774.193 c 7.126,0 12.903,-5.775 12.903,-12.903 V 141.936 c 10e-4,-7.128 -5.776,-12.904 -12.902,-12.904 z"
   id="path4"
   sodipodi:nodetypes="ssssccccssscssssscs" />
	<path
   fill="#ed1f34"
   d="m 400,517.129 c -64.585,0 -117.129,-52.544 -117.129,-117.129 0,-64.585 52.544,-117.129 117.129,-117.129 64.585,0 117.129,52.544 117.129,117.129 0,64.585 -52.544,117.129 -117.129,117.129 z"
   id="path6" />
	<path
   fill="#ed1f34"
   d="m 400,516.129 c 64.034,0 116.129,-52.095 116.129,-116.129 0,-64.034 -52.095,-116.129 -116.129,-116.129 -64.034,0 -116.129,52.095 -116.129,116.129 0,64.034 52.095,116.129 116.129,116.129 z"
   id="path8" />
	<path
   d="m 400,541.936 c 78.264,0 141.936,-63.673 141.936,-141.936 0,-78.262 -63.672,-141.936 -141.936,-141.936 -78.264,0 -141.936,63.674 -141.936,141.936 0,78.263 63.672,141.936 141.936,141.936 z m 0,-258.065 c 64.034,0 116.129,52.095 116.129,116.129 0,64.034 -52.095,116.129 -116.129,116.129 -64.034,0 -116.129,-52.095 -116.129,-116.129 0,-64.034 52.095,-116.129 116.129,-116.129 z"
   id="path10" />
</g>
</svg>
