<svg xmlns="http://www.w3.org/2000/svg" width="330.406" height="94.454" viewBox="0 0 330.406 94.454">
  <g id="Grupo_956" data-name="Grupo 956" transform="translate(-70.19 -54.533)">
    <g id="Grupo_157" data-name="Grupo 157" transform="translate(178.818 119.477)">
      <path id="Trazado_775" data-name="Trazado 775" d="M165.035,113.466v9.052H164.1l-.5-3.715a7.823,7.823,0,0,1-7.179,4.182c-5.244,0-9.738-4.087-9.738-11.33,0-7.272,4.462-11.391,9.706-11.391a8.092,8.092,0,0,1,6.493,3.181l.092-3.181h.811l1.529,8.582-.842.187-.717-1.842c-1.311-3.34-3.715-5.587-7.21-5.587-4.5,0-8.208,3.5-8.208,10.019,0,6.493,3.743,10.02,8.176,10.02a6.7,6.7,0,0,0,6.96-6.961v-1.155l-4.556-.312v-.967H168.4v.967Z" transform="translate(-146.683 -100.265)" fill="#161615"/>
      <path id="Trazado_776" data-name="Trazado 776" d="M167.746,110.359v8.988l3.839.283v.9H162.47v-.9l3.714-.314V106.957a6.992,6.992,0,0,1-4.337.373v-.686a6.3,6.3,0,0,0,4.993-2.029l.875.251v3.557c1-2.123,2.714-3.745,4.806-3.745,1.28,0,2.372.53,2.372,1.436a.931.931,0,0,1-.9.936c-.717,0-1-.781-2.153-.781-1.561,0-3.121,1.562-4.088,4.09" transform="translate(-140.313 -98.438)" fill="#161615"/>
      <path id="Trazado_777" data-name="Trazado 777" d="M175.343,115.852v-8.8a6.263,6.263,0,0,1-3.87.28v-.687a5.65,5.65,0,0,0,4.587-2.028l.844.25V115.76c0,2.464,1.373,4.087,3.807,4.087a7.41,7.41,0,0,0,5.993-3.62v-9.27a6.94,6.94,0,0,1-4.307.375v-.687a6.543,6.543,0,0,0,5.024-2.028l.873.25V119.6h3.434v.844l-4.867.467-.1-.061-.031-3.248a7.683,7.683,0,0,1-6.274,3.559c-3.776,0-5.118-2.5-5.118-5.306" transform="translate(-136.269 -98.437)" fill="#161615"/>
      <path id="Trazado_778" data-name="Trazado 778" d="M201.511,112.855c0-4.182-2.061-6.9-5.555-6.9a5.336,5.336,0,0,0-5.243,3.684v7.4a5.39,5.39,0,0,0,4.931,2.873c3.5,0,5.868-2.873,5.868-7.055m-12.359,13.265v-19.2a7.041,7.041,0,0,1-4.338.406v-.686a6.5,6.5,0,0,0,5.024-2.029l.844.249v2.965a5.952,5.952,0,0,1,5.493-3.151c4.276,0,6.866,3.309,6.866,8.146,0,4.9-2.965,8.333-7.241,8.333a6,6,0,0,1-5.087-2.4v7.366l3.682.311v.9h-8.677v-.9Z" transform="translate(-130.664 -98.437)" fill="#161615"/>
      <path id="Trazado_779" data-name="Trazado 779" d="M206.5,119.891c3.682,0,6.023-2.809,6.023-6.991s-2.34-6.991-6.023-6.991c-3.651,0-5.994,2.778-5.994,6.991,0,4.182,2.343,6.991,5.994,6.991m0-15.231c4.556,0,7.554,3.34,7.554,8.239,0,4.87-3,8.241-7.585,8.241-4.557,0-7.522-3.371-7.522-8.241,0-4.9,2.965-8.239,7.554-8.239" transform="translate(-124.728 -98.419)" fill="#161615"/>
    </g>
    <path id="Trazado_780" data-name="Trazado 780" d="M212.614,121.228l4.556-.312V101.94l-4.556-.313v-.966h17.6l2.311,6.646-.844.221-2.9-5.619h-9.925v8.458h6.492l.53-4h.874v9.115h-.874l-.562-3.87h-6.461v9.333h10.861l2.466-7.149.842.157-1.873,8.239H212.614Z" transform="translate(59.833 19.378)" fill="#161615"/>
    <g id="Grupo_158" data-name="Grupo 158" transform="translate(178.493 61.851)">
      <path id="Trazado_781" data-name="Trazado 781" d="M240.787,118.665V111.02a5.365,5.365,0,0,0-4.835-2.84c-3.59,0-5.93,2.9-5.93,7.054,0,4.245,2.092,6.929,5.618,6.929a5.213,5.213,0,0,0,5.148-3.5m1.562,3.184h3.528v.842l-4.9.469-.092-.062-.064-2.778a6.051,6.051,0,0,1-5.429,3.09c-4.338,0-6.93-3.276-6.93-8.114,0-4.932,2.934-8.364,7.305-8.364a5.983,5.983,0,0,1,5.023,2.434v-7.8a7.024,7.024,0,0,1-4.337.406v-.717a6.4,6.4,0,0,0,5.026-2l.873.25Z" transform="translate(-112.003 -43.063)" fill="#161615"/>
      <path id="Trazado_782" data-name="Trazado 782" d="M246.021,100.55a1.342,1.342,0,1,1,0,2.683,1.341,1.341,0,1,1,0-2.683m-.719,20.475V108.633a7.025,7.025,0,0,1-4.337.406v-.686a6.548,6.548,0,0,0,5.024-2.029l.873.28v14.421l3.621.311v.9h-8.9v-.9Z" transform="translate(-106.749 -42.519)" fill="#161615"/>
      <path id="Trazado_783" data-name="Trazado 783" d="M259.541,118.695a4.623,4.623,0,0,1-4.807,3.839c-2.434,0-4.368-1.5-4.368-5.118v-9.427h-3.029v-.934l2.967-.283.78-5.43h.873v5.368h5.557v1.28h-5.557v9.739c0,2.37,1.187,3.526,3.029,3.526a3.684,3.684,0,0,0,3.651-2.9Z" transform="translate(-104.072 -42.186)" fill="#161615"/>
      <path id="Trazado_784" data-name="Trazado 784" d="M264.121,119.891c3.682,0,6.024-2.809,6.024-6.991s-2.342-6.991-6.024-6.991c-3.651,0-5.993,2.778-5.993,6.991,0,4.182,2.342,6.991,5.993,6.991m0-15.231c4.557,0,7.554,3.34,7.554,8.239,0,4.87-3,8.241-7.585,8.241-4.556,0-7.521-3.371-7.521-8.241,0-4.9,2.965-8.239,7.552-8.239" transform="translate(-100.194 -40.792)" fill="#161615"/>
      <path id="Trazado_785" data-name="Trazado 785" d="M273.588,110.359v8.988l3.839.283v.9h-9.116v-.9l3.715-.314V106.957a6.993,6.993,0,0,1-4.337.373v-.686a6.3,6.3,0,0,0,4.993-2.029l.873.251v3.557c1-2.123,2.715-3.745,4.807-3.745,1.28,0,2.372.53,2.372,1.436a.933.933,0,0,1-.9.936c-.717,0-1-.781-2.153-.781-1.562,0-3.121,1.562-4.089,4.09" transform="translate(-95.522 -40.811)" fill="#161615"/>
      <path id="Trazado_786" data-name="Trazado 786" d="M282.569,100.55a1.342,1.342,0,1,1,0,2.683,1.341,1.341,0,1,1,0-2.683m-.719,20.475V108.633a7.026,7.026,0,0,1-4.337.406v-.686a6.543,6.543,0,0,0,5.023-2.029l.876.28v14.421l3.62.311v.9h-8.9v-.9Z" transform="translate(-91.395 -42.519)" fill="#161615"/>
      <path id="Trazado_787" data-name="Trazado 787" d="M295.537,117.363v-4.526c-7.054.124-8.958,2.184-8.958,4.4,0,1.779,1.528,2.653,3.371,2.653a7.979,7.979,0,0,0,5.587-2.528m1.561-7.241V116.9c0,2,.5,2.558,1.592,2.558.844,0,1.311-.53,1.561-1.5l.719.314a2.612,2.612,0,0,1-2.748,2.4,2.456,2.456,0,0,1-2.59-2.123,8.495,8.495,0,0,1-5.93,2.59c-2.839,0-4.649-1.559-4.649-3.9,0-3.559,3.776-5.462,10.486-5.524v-1.75c0-2.715-1.5-4.056-3.995-4.056-2.248,0-3.059.75-3.59,1.684-.436.812-.53,1.531-1.278,1.531a.88.88,0,0,1-.939-.906,2.917,2.917,0,0,1,1.095-1.965,6.691,6.691,0,0,1,4.806-1.592c4.182,0,5.462,2.34,5.462,5.462" transform="translate(-88.228 -40.792)" fill="#161615"/>
      <path id="Trazado_788" data-name="Trazado 788" d="M300.585,121.569V101.563a7.135,7.135,0,0,1-4.371.4v-.719a6.348,6.348,0,0,0,5.027-2l.9.25v22.1l3.5.28v.9h-8.678v-.9Z" transform="translate(-83.539 -43.064)" fill="#161615"/>
      <path id="Trazado_789" data-name="Trazado 789" d="M318.257,87.071c2.512,0,5.054,1.642,5.146,5.456H312.645c.464-3.316,2.573-5.456,5.612-5.456m6.6,6.666c.03-.217.03-.714.03-.993,0-3.41-2.139-6.914-6.6-6.914-4.37,0-7.255,3.349-7.255,8.185s2.917,8.187,7.537,8.187c3.38,0,5.331-1.582,6.106-3.971l-.96-.341a4.893,4.893,0,0,1-4.962,3.07c-3.907,0-6.2-2.7-6.2-6.915v-.31Zm-22.169-.558c-2.017-.5-4.559-1.179-4.559-3.378,0-1.46,1.054-2.761,3.721-2.761,2.387,0,3.628,1.054,4.745,3.008l.991,1.735.775-.153-.993-5.862h-.836l-.031,2.573a5.411,5.411,0,0,0-4.868-2.511c-3.1,0-4.96,1.737-4.96,4,0,3.131,3.564,4.093,5.7,4.651,2.914.744,4.9,1.457,4.9,3.566,0,1.86-1.581,2.975-3.968,2.975-2.481,0-4.032-1.24-5.551-3.719l-.961-1.582-.807.155,1.024,6.047h.868l-.094-2.914A6.245,6.245,0,0,0,303.5,102.2c3.163,0,5.239-1.676,5.239-4.28,0-3.006-2.634-3.875-6.044-4.743m-11.07-7.163-.868-.249a6.513,6.513,0,0,1-4.993,2.017v.682a6.892,6.892,0,0,0,4.279-.372V97.3a7.358,7.358,0,0,1-5.952,3.6c-2.418,0-3.785-1.613-3.785-4.063V86.016l-.836-.249a5.62,5.62,0,0,1-4.559,2.017v.682a6.219,6.219,0,0,0,3.846-.278v8.742c0,2.792,1.335,5.273,5.085,5.273a7.6,7.6,0,0,0,6.231-3.444l.031,3.134.094.061,4.835-.466v-.836h-3.41Zm-36.37-4.526,4.559-.342v-.961h-10.79v.961l4.588.31V89.83H241.517V81.457l4.59-.31v-.961h-10.79v.961l4.524.342v18.819l-4.524.311v.96h10.79v-.96l-4.59-.311V91.07h12.092v9.239l-4.588.311v.96h10.79v-.96l-4.559-.311Zm11.906,19.471c-3.627,0-5.953-2.791-5.953-6.946,0-4.185,2.326-6.944,5.953-6.944,3.658,0,5.984,2.789,5.984,6.944s-2.326,6.946-5.984,6.946m0-15.131c-4.556,0-7.5,3.317-7.5,8.185,0,4.837,2.947,8.187,7.471,8.187,4.559,0,7.534-3.35,7.534-8.187,0-4.868-2.975-8.185-7.5-8.185" transform="translate(-109.122 -51.074)" fill="#161615"/>
      <path id="Trazado_790" data-name="Trazado 790" d="M152.624,61.081h6.885a4.568,4.568,0,0,1,4.9,4.868c0,2.947-1.615,5.178-4.654,5.178h-7.13Zm4.807,19.193-4.807-.311V72.368h7.348c3.846,0,6.078-2.728,6.078-6.389a5.819,5.819,0,0,0-6.231-6.139H146.454V60.8l4.5.341V79.962l-4.5.311v.961h10.977Zm28.463,29.021v.9h8.775v-.871l-3.536-.308V99.527a7.2,7.2,0,0,1,5.953-3.719c2.451,0,3.814,1.581,3.814,4.061v9.147l-3.6.308v.871h8.465v-.9l-3.319-.31V99.713c0-2.82-1.363-5.239-5.053-5.239a7.68,7.68,0,0,0-6.3,3.5V94.659l-.868-.249a6.361,6.361,0,0,1-4.962,2.017v.652a6.965,6.965,0,0,0,4.311-.373v12.28Zm-33.27-19.223h7.225c3.069,0,5.022,1.86,5.022,4.712s-1.643,4.9-4.96,4.9h-7.287Zm4.807,19.161-4.807-.31v-7.97h6.388l4.526,9.241h5.675v-.961l-4.62-.466-3.846-7.813a5.829,5.829,0,0,0,5.768-6.17,5.747,5.747,0,0,0-6.139-5.953H146.454v.961l4.529.341v18.791l-4.529.31v.961h10.977ZM264.8,80.026v-9.27c0-2.822-1.365-5.273-5.054-5.273a7.619,7.619,0,0,0-6.263,3.535V65.67l-.868-.249a6.272,6.272,0,0,1-4.963,2.015v.683a6.984,6.984,0,0,0,4.311-.372V80.026l-3.689.31v.9h8.773v-.868l-3.535-.311V70.568a7.221,7.221,0,0,1,5.922-3.752c2.451,0,3.814,1.613,3.814,4.093v9.147l-3.6.311v.868h8.465v-.9Zm-.061,19.565c0-2.822-1.18-5.117-4.468-5.117a6.768,6.768,0,0,0-5.8,3.38,4.005,4.005,0,0,0-4.249-3.38,7.1,7.1,0,0,0-5.673,3.41V94.659l-.868-.249a6.449,6.449,0,0,1-4.96,2.017v.652a6.992,6.992,0,0,0,4.31-.4v12.309l-3.689.31v.9h8.09v-.871l-2.85-.308V99.374c1.177-2.046,3.131-3.566,5.27-3.566,2.481,0,3.288,1.676,3.288,4.216v8.992l-3.039.308v.871h7.659v-.871l-3.069-.308V99.84a4.355,4.355,0,0,0-.031-.622c1.3-2.2,3.1-3.41,5.208-3.41,2.512,0,3.319,1.706,3.319,4.185v9.023l-2.822.308v.871h7.751v-.871l-3.378-.339Zm-26.7-19.255v.9h8.837v-.9l-3.6-.31V65.7l-.869-.28a6.5,6.5,0,0,1-4.99,2.015v.683a7.007,7.007,0,0,0,4.309-.4V80.026Zm-7.5,29.237c-3.627,0-5.952-2.791-5.952-6.944,0-4.185,2.325-6.913,5.952-6.913,3.66,0,5.984,2.758,5.984,6.913s-2.325,6.944-5.984,6.944m0-15.1c-4.557,0-7.5,3.288-7.5,8.154,0,4.837,2.945,8.185,7.473,8.185,4.559,0,7.534-3.349,7.534-8.185,0-4.867-2.975-8.154-7.5-8.154M220.217,67.839v8.744c0,2.792,1.333,5.273,5.085,5.273a7.6,7.6,0,0,0,6.233-3.444l.03,3.134.092.061,4.838-.466V80.3h-3.411V65.67l-.866-.249a6.511,6.511,0,0,1-4.995,2.015v.683a6.907,6.907,0,0,0,4.28-.372v9.208a7.363,7.363,0,0,1-5.953,3.6c-2.42,0-3.783-1.613-3.783-4.063V65.67l-.838-.249a5.612,5.612,0,0,1-4.557,2.015v.683a6.2,6.2,0,0,0,3.844-.281m-34.663-.091V80.026l-3.691.31v.9h8.775v-.868l-3.533-.311V70.568a7.221,7.221,0,0,1,5.953-3.752c2.448,0,3.813,1.613,3.813,4.093v9.147l-3.6.311v.868h8.465v-.9l-3.316-.31v-9.27c0-2.822-1.366-5.273-5.054-5.273a7.635,7.635,0,0,0-6.3,3.535V65.67l-.868-.249a6.267,6.267,0,0,1-4.962,2.015v.683a6.984,6.984,0,0,0,4.311-.372M218.171,106.1a5.145,5.145,0,0,1-5.085,3.472c-3.5,0-5.58-2.664-5.58-6.882,0-4.124,2.325-6.976,5.889-6.976a5.259,5.259,0,0,1,4.776,2.789Zm-4.96-11.626c-4.341,0-7.255,3.38-7.255,8.279,0,4.8,2.573,8.061,6.882,8.061a5.9,5.9,0,0,0,5.365-2.975l.031,2.666.094.061,4.9-.464v-.838h-3.5V86.941l-.838-.249a6.029,6.029,0,0,1-4.929,2.636v.68a5.723,5.723,0,0,0,4.216-.709v7.562a5.944,5.944,0,0,0-4.96-2.387m-6.231-13.551,3.1.28c3.627.327,4.743,1.363,4.743,2.729,0,1.89-1.921,3.347-5.8,3.347-3.474,0-5.457-1.4-5.457-3.255,0-1.395,1.179-2.728,3.413-3.1m-2.543-9.643a4.651,4.651,0,0,1,9.3.062,4.454,4.454,0,0,1-4.682,4.526,4.566,4.566,0,0,1-4.62-4.588m-2.295,12.838c0,2.387,2.264,4.37,6.852,4.37,4.806,0,7.318-2.014,7.318-4.681,0-2.945-3.439-3.725-6.822-4-2.509-.217-4.835-.312-4.835-1.551,0-.619.619-1.21,3.38-1.21h1.022a5.82,5.82,0,0,0,4.59-9.733c.216-2.822,2.7-1.427,2.7-2.886a.869.869,0,0,0-.993-.932c-1.424,0-2.512,1.427-2.7,2.978a6.068,6.068,0,0,0-3.41-.993c-3.783,0-6.234,2.542-6.234,5.736a5.542,5.542,0,0,0,2.886,5.024c-1.676.155-2.573,1.022-2.573,2.2,0,.838.527,1.643,1.921,2.109a3.887,3.887,0,0,0-3.1,3.566m-22.046,22.942a7.9,7.9,0,0,1-5.519,2.512c-1.829,0-3.349-.866-3.349-2.634,0-2.2,1.892-4.248,8.867-4.371Zm-10.387-.122c0,2.325,1.8,3.875,4.621,3.875a8.413,8.413,0,0,0,5.859-2.512,2.416,2.416,0,0,0,2.575,2.046,2.6,2.6,0,0,0,2.729-2.387l-.714-.31c-.248.961-.714,1.488-1.549,1.488-1.088,0-1.583-.56-1.583-2.542V99.869c0-3.1-1.272-5.395-5.394-5.395a6.649,6.649,0,0,0-4.776,1.581,2.852,2.852,0,0,0-1.085,1.923.872.872,0,0,0,.932.9c.743,0,.836-.714,1.27-1.521.527-.93,1.332-1.642,3.535-1.642,2.481,0,3.968,1.332,3.968,4v1.738c-6.633.061-10.387,1.954-10.387,5.487m72.741-44.587a1.333,1.333,0,1,0,0-2.666,1.333,1.333,0,1,0,0,2.666M173.74,66.723c2.512,0,5.053,1.646,5.148,5.457h-10.76c.466-3.317,2.573-5.457,5.612-5.457m.31,15.133c3.38,0,5.334-1.582,6.109-3.969l-.963-.341a4.887,4.887,0,0,1-4.96,3.069c-3.905,0-6.2-2.7-6.2-6.915v-.31h12.308c.03-.217.03-.714.03-.993,0-3.411-2.137-6.914-6.6-6.914-4.372,0-7.255,3.349-7.255,8.187s2.914,8.185,7.534,8.185" transform="translate(-146.454 -59.686)" fill="#161615"/>
    </g>
    <path id="Trazado_791" data-name="Trazado 791" d="M131.651,58.7v82.444h1.241V58.7Z" transform="translate(25.82 1.752)" fill="#161615"/>
    <g id="Grupo_159" data-name="Grupo 159" transform="translate(70.19 54.533)">
      <path id="Trazado_792" data-name="Trazado 792" d="M103.666,54.533C71.535,54.6,70.177,94.669,70.19,102.027c.041,22.328,9.134,47.011,33.648,46.96s33.5-24.913,33.466-47.241c-.013-7.359-1.512-47.278-33.638-47.213" transform="translate(-70.19 -54.533)" fill="#161615"/>
      <path id="Trazado_793" data-name="Trazado 793" d="M102.391,145.517c-22.6.048-28.706-23.991-28.746-44.584-.011-6.788-1.155-44.682,28.476-44.738s28.817,38.029,28.837,44.816c.04,20.6-5.957,44.472-28.567,44.506" transform="translate(-68.742 -53.835)" fill="#fff"/>
      <path id="Trazado_794" data-name="Trazado 794" d="M114.849,88.276c-2.653-4.235-6.381-9.234-6.8-14.373-.258-3.229-.07-6.838-2.24-9.5a7.937,7.937,0,0,0-2.407-1.954,7.41,7.41,0,0,0-3.244-.807,10.363,10.363,0,0,0-2.985.447,23.748,23.748,0,0,1-3.462.92,10.006,10.006,0,0,1-3.823-.176c-.8-.178-1.018-.241-1.819-.413-.439-.1-1.635-.442-2.018-.07-.9.9,1.01,1.994,1.586,2.4A36.2,36.2,0,0,1,90.6,66.995a9.928,9.928,0,0,1,3.384,5.155,8.524,8.524,0,0,1,.193,1.836c.118,9-14.913,17.849-14.709,33.8.071,5.644,3.082,6.574,3.048,3.444-.055-3.715,1.265-7.728,2.631-11.173.32-.8,1.329-1.037,1.1.345a57.449,57.449,0,0,0-1.166,12.126,34.633,34.633,0,0,0,.318,4.466,25.681,25.681,0,0,0,.777,3.508,15.594,15.594,0,0,0,1.132,2.785,11.453,11.453,0,0,0,1.333,1.982,10.208,10.208,0,0,0,1.646,1.515,2.464,2.464,0,0,1,.92.973c.244.645-.584.907-1.017,1.106-.481.216-.9.457-1.353.677-.648.317-1.294.652-1.926,1-.386.223-.826.354-1.2.615-.371.237-.56.642.021.73a3.555,3.555,0,0,0,.819-.041,3.562,3.562,0,0,1,1.376.089c.589.233.558.8.581,1.346.024.6.435.788.966.646a4.347,4.347,0,0,0,1.5-1.038,6.4,6.4,0,0,1,1.126-.792,5.373,5.373,0,0,1,2.657-.229c.481.027,1.164.231,1.558-.162s.112-1.092-.067-1.538a13.024,13.024,0,0,0-.579-1.237c-.1-.183-.231-.347-.311-.537-.341-.788,2.39-1.378,2.786-1.5a23.229,23.229,0,0,1,4.091-.777,8.531,8.531,0,0,1,3.962.385,3.3,3.3,0,0,1,1.308,1.038c.2.243.655.978.25,1.275-.633.462-1.289.862-1.9,1.348a7.853,7.853,0,0,0-1.093.993c-.247.277-.315.771.186.74.665-.033,1.329-.068,1.99-.071a2.483,2.483,0,0,1,1.387.334c.648.444.79,1.389,1.525,1.752a.932.932,0,0,0,.673.034c.481-.149.706-.646.966-1.037a2.65,2.65,0,0,1,.859-.906,1.611,1.611,0,0,1,.777-.179,13.913,13.913,0,0,1,1.457.058c.381.048.9.226,1.243-.03.64-.5-1.049-1.608-1.387-1.821-.768-.48-1.867-.987-2.11-1.978a5.35,5.35,0,0,1,.782-3.393,33.188,33.188,0,0,0,1.606-3.221,16.872,16.872,0,0,0,.815-3.238c.841-6.034-.561-12.453-2.322-18.213-.212-.69-.474-1.376-.682-2.066-.305-1.086.75-1.342,1.291-.287.513,1.018,3.891,7.512,4.878,12.335.622,3.082,2.938,3.2,2.871-2.257-.089-7.911-3.072-13.624-6.728-19.441" transform="translate(-66.292 -51.545)" fill="#161615"/>
      <path id="Trazado_795" data-name="Trazado 795" d="M109.277,106.889c.408,3.978.851,10.847-4.012,11.078-1.287.064-2.89-.839-5.276-.677-4.047.278-5.254,1.831-8.562,1.236a5.232,5.232,0,0,1-4.087-3.238,20.01,20.01,0,0,1-1.126-6.694,62.846,62.846,0,0,1,0-7.531c.109-1.808.3-3.614.537-5.415.4-2.988,1.03-5.935,1.714-8.869a38.934,38.934,0,0,1,2.336-7.6A8.866,8.866,0,0,1,94.637,74.8a7.846,7.846,0,0,1,6.646-.067c4.374,2.242,4.266,7.468,4.405,11.709a67.188,67.188,0,0,0,1.108,9.841c.649,3.573,2.1,6.971,2.481,10.608" transform="translate(-63.506 -46.344)" fill="#fff"/>
      <path id="Trazado_796" data-name="Trazado 796" d="M100.007,66.43c.9,1.049.842,5.379-.625,6.879-.858.88-2.311,1-3.455,1.156a37.369,37.369,0,0,0-3.755.77c-1.19.293-1.106-.966.038-1.866,1.71-1.342,6.006-1.937,7.044-6.939.036-.19.243-.6.753,0" transform="translate(-61.315 -49.667)" fill="#fff"/>
      <path id="Trazado_797" data-name="Trazado 797" d="M93.374,68.747A3.062,3.062,0,1,0,92.84,64.8a2.834,2.834,0,0,0,.534,3.951" transform="translate(-60.906 -50.848)" fill="#fff"/>
      <path id="Trazado_798" data-name="Trazado 798" d="M93.938,65.424a1.317,1.317,0,0,1,1.764-.541,1.48,1.48,0,1,1-1.764.541" transform="translate(-60.34 -50.255)" fill="#161615"/>
      <path id="Trazado_799" data-name="Trazado 799" d="M103.666,54.533C71.535,54.6,70.177,94.669,70.19,102.027c.041,22.328,9.134,47.011,33.648,46.96s33.5-24.913,33.466-47.241c-.013-7.359-1.512-47.278-33.638-47.213" transform="translate(-70.19 -54.533)" fill="#161615"/>
      <path id="Trazado_800" data-name="Trazado 800" d="M102.391,145.517c-22.6.048-28.706-23.991-28.746-44.584-.011-6.788-1.155-44.682,28.476-44.738s28.817,38.029,28.837,44.816c.04,20.6-5.957,44.472-28.567,44.506" transform="translate(-68.742 -53.835)" fill="#e85300"/>
      <path id="Trazado_801" data-name="Trazado 801" d="M114.849,88.276c-2.653-4.235-6.381-9.234-6.8-14.373-.258-3.229-.07-6.838-2.24-9.5a7.937,7.937,0,0,0-2.407-1.954,7.41,7.41,0,0,0-3.244-.807,10.363,10.363,0,0,0-2.985.447,23.748,23.748,0,0,1-3.462.92,10.006,10.006,0,0,1-3.823-.176c-.8-.178-1.018-.241-1.819-.413-.439-.1-1.635-.442-2.018-.07-.9.9,1.01,1.994,1.586,2.4A36.2,36.2,0,0,1,90.6,66.995a9.928,9.928,0,0,1,3.384,5.155,8.524,8.524,0,0,1,.193,1.836c.118,9-14.913,17.849-14.709,33.8.071,5.644,3.082,6.574,3.048,3.444-.055-3.715,1.265-7.728,2.631-11.173.32-.8,1.329-1.037,1.1.345a57.449,57.449,0,0,0-1.166,12.126,34.633,34.633,0,0,0,.318,4.466,25.681,25.681,0,0,0,.777,3.508,15.594,15.594,0,0,0,1.132,2.785,11.453,11.453,0,0,0,1.333,1.982,10.208,10.208,0,0,0,1.646,1.515,2.464,2.464,0,0,1,.92.973c.244.645-.584.907-1.017,1.106-.481.216-.9.457-1.353.677-.648.317-1.294.652-1.926,1-.386.223-.826.354-1.2.615-.371.237-.56.642.021.73a3.555,3.555,0,0,0,.819-.041,3.562,3.562,0,0,1,1.376.089c.589.233.558.8.581,1.346.024.6.435.788.966.646a4.347,4.347,0,0,0,1.5-1.038,6.4,6.4,0,0,1,1.126-.792,5.373,5.373,0,0,1,2.657-.229c.481.027,1.164.231,1.558-.162s.112-1.092-.067-1.538a13.024,13.024,0,0,0-.579-1.237c-.1-.183-.231-.347-.311-.537-.341-.788,2.39-1.378,2.786-1.5a23.229,23.229,0,0,1,4.091-.777,8.531,8.531,0,0,1,3.962.385,3.3,3.3,0,0,1,1.308,1.038c.2.243.655.978.25,1.275-.633.462-1.289.862-1.9,1.348a7.853,7.853,0,0,0-1.093.993c-.247.277-.315.771.186.74.665-.033,1.329-.068,1.99-.071a2.483,2.483,0,0,1,1.387.334c.648.444.79,1.389,1.525,1.752a.932.932,0,0,0,.673.034c.481-.149.706-.646.966-1.037a2.65,2.65,0,0,1,.859-.906,1.611,1.611,0,0,1,.777-.179,13.913,13.913,0,0,1,1.457.058c.381.048.9.226,1.243-.03.64-.5-1.049-1.608-1.387-1.821-.768-.48-1.867-.987-2.11-1.978a5.35,5.35,0,0,1,.782-3.393,33.188,33.188,0,0,0,1.606-3.221,16.872,16.872,0,0,0,.815-3.238c.841-6.034-.561-12.453-2.322-18.213-.212-.69-.474-1.376-.682-2.066-.305-1.086.75-1.342,1.291-.287.513,1.018,3.891,7.512,4.878,12.335.622,3.082,2.938,3.2,2.871-2.257-.089-7.911-3.072-13.624-6.728-19.441" transform="translate(-66.292 -51.545)" fill="#161615"/>
      <path id="Trazado_802" data-name="Trazado 802" d="M109.277,106.889c.408,3.978.851,10.847-4.012,11.078-1.287.064-2.89-.839-5.276-.677-4.047.278-5.254,1.831-8.562,1.236a5.232,5.232,0,0,1-4.087-3.238,20.01,20.01,0,0,1-1.126-6.694,62.846,62.846,0,0,1,0-7.531c.109-1.808.3-3.614.537-5.415.4-2.988,1.03-5.935,1.714-8.869a38.934,38.934,0,0,1,2.336-7.6A8.866,8.866,0,0,1,94.637,74.8a7.846,7.846,0,0,1,6.646-.067c4.374,2.242,4.266,7.468,4.405,11.709a67.188,67.188,0,0,0,1.108,9.841c.649,3.573,2.1,6.971,2.481,10.608" transform="translate(-63.506 -46.344)" fill="#fff"/>
      <path id="Trazado_803" data-name="Trazado 803" d="M100.007,66.43c.9,1.049.842,5.379-.625,6.879-.858.88-2.311,1-3.455,1.156a37.369,37.369,0,0,0-3.755.77c-1.19.293-1.106-.966.038-1.866,1.71-1.342,6.006-1.937,7.044-6.939.036-.19.243-.6.753,0" transform="translate(-61.315 -49.667)" fill="#fff"/>
      <path id="Trazado_804" data-name="Trazado 804" d="M93.374,68.747A3.062,3.062,0,1,0,92.84,64.8a2.834,2.834,0,0,0,.534,3.951" transform="translate(-60.906 -50.848)" fill="#fff"/>
      <path id="Trazado_805" data-name="Trazado 805" d="M93.938,65.424a1.317,1.317,0,0,1,1.764-.541,1.48,1.48,0,1,1-1.764.541" transform="translate(-60.34 -50.255)" fill="#161615"/>
    </g>
  </g>
</svg>
