<?xml version="1.0" encoding="UTF-8" standalone="no"?>
<svg
   width="87.419998mm"
   height="24.990999mm"
   viewBox="0 0 330.40629 94.454167"
   version="1.1"
   id="svg37"
   sodipodi:docname="penguin gris.svg"
   inkscape:version="1.1.1 (3bf5ae0d25, 2021-09-20)"
   xmlns:inkscape="http://www.inkscape.org/namespaces/inkscape"
   xmlns:sodipodi="http://sodipodi.sourceforge.net/DTD/sodipodi-0.dtd"
   xmlns="http://www.w3.org/2000/svg"
   xmlns:svg="http://www.w3.org/2000/svg"
   xmlns:rdf="http://www.w3.org/1999/02/22-rdf-syntax-ns#"
   xmlns:cc="http://creativecommons.org/ns#"
   xmlns:dc="http://purl.org/dc/elements/1.1/">
  <metadata
     id="metadata43">
    <rdf:RDF>
      <cc:Work
         rdf:about="">
        <dc:format>image/svg+xml</dc:format>
        <dc:type
           rdf:resource="http://purl.org/dc/dcmitype/StillImage" />
      </cc:Work>
    </rdf:RDF>
  </metadata>
  <defs
     id="defs41" />
  <sodipodi:namedview
     pagecolor="#ffffff"
     bordercolor="#666666"
     borderopacity="1"
     objecttolerance="10"
     gridtolerance="10"
     guidetolerance="10"
     inkscape:pageopacity="0"
     inkscape:pageshadow="2"
     inkscape:window-width="1920"
     inkscape:window-height="1009"
     id="namedview39"
     showgrid="false"
     units="mm"
     width="350.405mm"
     inkscape:zoom="2.2599612"
     inkscape:cx="160.62222"
     inkscape:cy="94.913132"
     inkscape:window-x="-8"
     inkscape:window-y="111"
     inkscape:window-maximized="1"
     inkscape:current-layer="g945"
     inkscape:pagecheckerboard="0"
     inkscape:document-units="mm" />
  <g
     id="g945"
     transform="translate(-492.10394,-492.10394)">
    <g
       id="g16260"
       transform="translate(-4.8755895,-122.85165)">
      <g
         id="Grupo_157"
         data-name="Grupo 157"
         transform="translate(605.60822,679.89968)"
         style="fill:#666666;fill-opacity:1">
        <path
           id="Trazado_775"
           data-name="Trazado 775"
           d="m 165.035,113.466 v 9.052 H 164.1 l -0.5,-3.715 a 7.823,7.823 0 0 1 -7.179,4.182 c -5.244,0 -9.738,-4.087 -9.738,-11.33 0,-7.272 4.462,-11.391 9.706,-11.391 a 8.092,8.092 0 0 1 6.493,3.181 l 0.092,-3.181 h 0.811 l 1.529,8.582 -0.842,0.187 -0.717,-1.842 c -1.311,-3.34 -3.715,-5.587 -7.21,-5.587 -4.5,0 -8.208,3.5 -8.208,10.019 0,6.493 3.743,10.02 8.176,10.02 a 6.7,6.7 0 0 0 6.96,-6.961 v -1.155 l -4.556,-0.312 v -0.967 h 9.483 v 0.967 z"
           transform="translate(-146.683,-100.265)"
           fill="#161615"
           style="fill:#666666;fill-opacity:1" />
        <path
           id="Trazado_776"
           data-name="Trazado 776"
           d="m 167.746,110.359 v 8.988 l 3.839,0.283 v 0.9 h -9.115 v -0.9 l 3.714,-0.314 v -12.359 a 6.992,6.992 0 0 1 -4.337,0.373 v -0.686 a 6.3,6.3 0 0 0 4.993,-2.029 l 0.875,0.251 v 3.557 c 1,-2.123 2.714,-3.745 4.806,-3.745 1.28,0 2.372,0.53 2.372,1.436 a 0.931,0.931 0 0 1 -0.9,0.936 c -0.717,0 -1,-0.781 -2.153,-0.781 -1.561,0 -3.121,1.562 -4.088,4.09"
           transform="translate(-140.313,-98.438)"
           fill="#161615"
           style="fill:#666666;fill-opacity:1" />
        <path
           id="Trazado_777"
           data-name="Trazado 777"
           d="m 175.343,115.852 v -8.8 a 6.263,6.263 0 0 1 -3.87,0.28 v -0.687 a 5.65,5.65 0 0 0 4.587,-2.028 l 0.844,0.25 v 10.893 c 0,2.464 1.373,4.087 3.807,4.087 a 7.41,7.41 0 0 0 5.993,-3.62 v -9.27 a 6.94,6.94 0 0 1 -4.307,0.375 v -0.687 a 6.543,6.543 0 0 0 5.024,-2.028 l 0.873,0.25 V 119.6 h 3.434 v 0.844 l -4.867,0.467 -0.1,-0.061 -0.031,-3.248 a 7.683,7.683 0 0 1 -6.274,3.559 c -3.776,0 -5.118,-2.5 -5.118,-5.306"
           transform="translate(-136.269,-98.437)"
           fill="#161615"
           style="fill:#666666;fill-opacity:1" />
        <path
           id="Trazado_778"
           data-name="Trazado 778"
           d="m 201.511,112.855 c 0,-4.182 -2.061,-6.9 -5.555,-6.9 a 5.336,5.336 0 0 0 -5.243,3.684 v 7.4 a 5.39,5.39 0 0 0 4.931,2.873 c 3.5,0 5.868,-2.873 5.868,-7.055 m -12.359,13.265 v -19.2 a 7.041,7.041 0 0 1 -4.338,0.406 v -0.686 a 6.5,6.5 0 0 0 5.024,-2.029 l 0.844,0.249 v 2.965 a 5.952,5.952 0 0 1 5.493,-3.151 c 4.276,0 6.866,3.309 6.866,8.146 0,4.9 -2.965,8.333 -7.241,8.333 a 6,6 0 0 1 -5.087,-2.4 v 7.366 l 3.682,0.311 v 0.9 h -8.677 v -0.9 z"
           transform="translate(-130.664,-98.437)"
           fill="#161615"
           style="fill:#666666;fill-opacity:1" />
        <path
           id="Trazado_779"
           data-name="Trazado 779"
           d="m 206.5,119.891 c 3.682,0 6.023,-2.809 6.023,-6.991 0,-4.182 -2.34,-6.991 -6.023,-6.991 -3.651,0 -5.994,2.778 -5.994,6.991 0,4.182 2.343,6.991 5.994,6.991 m 0,-15.231 c 4.556,0 7.554,3.34 7.554,8.239 0,4.87 -3,8.241 -7.585,8.241 -4.557,0 -7.522,-3.371 -7.522,-8.241 0,-4.9 2.965,-8.239 7.554,-8.239"
           transform="translate(-124.728,-98.419)"
           fill="#161615"
           style="fill:#666666;fill-opacity:1" />
      </g>
      <path
         id="Trazado_780"
         data-name="Trazado 780"
         d="m 699.23722,701.02868 4.556,-0.312 v -18.976 l -4.556,-0.313 v -0.966 h 17.6 l 2.311,6.646 -0.844,0.221 -2.9,-5.619 h -9.925 v 8.458 h 6.492 l 0.53,-4 h 0.874 v 9.115 h -0.874 l -0.562,-3.87 h -6.461 v 9.333 h 10.861 l 2.466,-7.149 0.842,0.157 -1.873,8.239 h -18.537 z"
         fill="#161615"
         style="fill:#666666;fill-opacity:1" />
      <path
         id="Trazado_781"
         data-name="Trazado 781"
         d="m 734.06722,697.87568 v -7.645 a 5.365,5.365 0 0 0 -4.835,-2.84 c -3.59,0 -5.93,2.9 -5.93,7.054 0,4.245 2.092,6.929 5.618,6.929 a 5.213,5.213 0 0 0 5.148,-3.5 m 1.562,3.184 h 3.528 v 0.842 l -4.9,0.469 -0.092,-0.062 -0.064,-2.778 a 6.051,6.051 0 0 1 -5.429,3.09 c -4.338,0 -6.93,-3.276 -6.93,-8.114 0,-4.932 2.934,-8.364 7.305,-8.364 a 5.983,5.983 0 0 1 5.023,2.434 v -7.8 a 7.024,7.024 0 0 1 -4.337,0.406 v -0.717 a 6.4,6.4 0 0 0 5.026,-2 l 0.873,0.25 z"
         fill="#161615"
         style="fill:#666666;fill-opacity:1" />
      <path
         id="Trazado_782"
         data-name="Trazado 782"
         d="m 744.55522,680.30468 a 1.342,1.342 0 1 1 0,2.683 1.3415,1.3415 0 1 1 0,-2.683 m -0.719,20.475 v -12.392 a 7.025,7.025 0 0 1 -4.337,0.406 v -0.686 a 6.548,6.548 0 0 0 5.024,-2.029 l 0.873,0.28 v 14.421 l 3.621,0.311 v 0.9 h -8.9 v -0.9 z"
         fill="#161615"
         style="fill:#666666;fill-opacity:1" />
      <path
         id="Trazado_783"
         data-name="Trazado 783"
         d="m 760.75222,698.78268 a 4.623,4.623 0 0 1 -4.807,3.839 c -2.434,0 -4.368,-1.5 -4.368,-5.118 v -9.427 h -3.029 v -0.934 l 2.967,-0.283 0.78,-5.43 h 0.873 v 5.368 h 5.557 v 1.28 h -5.557 v 9.739 c 0,2.37 1.187,3.526 3.029,3.526 a 3.684,3.684 0 0 0 3.651,-2.9 z"
         fill="#161615"
         style="fill:#666666;fill-opacity:1" />
      <path
         id="Trazado_784"
         data-name="Trazado 784"
         d="m 769.21022,701.37268 c 3.682,0 6.024,-2.809 6.024,-6.991 0,-4.182 -2.342,-6.991 -6.024,-6.991 -3.651,0 -5.993,2.778 -5.993,6.991 0,4.182 2.342,6.991 5.993,6.991 m 0,-15.231 c 4.557,0 7.554,3.34 7.554,8.239 0,4.87 -3,8.241 -7.585,8.241 -4.556,0 -7.521,-3.371 -7.521,-8.241 0,-4.9 2.965,-8.239 7.552,-8.239"
         fill="#161615"
         style="fill:#666666;fill-opacity:1" />
      <path
         id="Trazado_785"
         data-name="Trazado 785"
         d="m 783.34922,691.82168 v 8.988 l 3.839,0.283 v 0.9 h -9.116 v -0.9 l 3.715,-0.314 v -12.359 a 6.993,6.993 0 0 1 -4.337,0.373 v -0.686 a 6.3,6.3 0 0 0 4.993,-2.029 l 0.873,0.251 v 3.557 c 1,-2.123 2.715,-3.745 4.807,-3.745 1.28,0 2.372,0.53 2.372,1.436 a 0.933,0.933 0 0 1 -0.9,0.936 c -0.717,0 -1,-0.781 -2.153,-0.781 -1.562,0 -3.121,1.562 -4.089,4.09"
         fill="#161615"
         style="fill:#666666;fill-opacity:1" />
      <path
         id="Trazado_786"
         data-name="Trazado 786"
         d="m 796.45722,680.30468 a 1.342,1.342 0 1 1 0,2.683 1.3415,1.3415 0 1 1 0,-2.683 m -0.719,20.475 v -12.392 a 7.026,7.026 0 0 1 -4.337,0.406 v -0.686 a 6.543,6.543 0 0 0 5.023,-2.029 l 0.876,0.28 v 14.421 l 3.62,0.311 v 0.9 h -8.9 v -0.9 z"
         fill="#161615"
         style="fill:#666666;fill-opacity:1" />
      <path
         id="Trazado_787"
         data-name="Trazado 787"
         d="m 812.59222,698.84468 v -4.526 c -7.054,0.124 -8.958,2.184 -8.958,4.4 0,1.779 1.528,2.653 3.371,2.653 a 7.979,7.979 0 0 0 5.587,-2.528 m 1.561,-7.241 v 6.779 c 0,2 0.5,2.558 1.592,2.558 0.844,0 1.311,-0.53 1.561,-1.5 l 0.719,0.314 a 2.612,2.612 0 0 1 -2.748,2.4 2.456,2.456 0 0 1 -2.59,-2.123 8.495,8.495 0 0 1 -5.93,2.59 c -2.839,0 -4.649,-1.559 -4.649,-3.9 0,-3.559 3.776,-5.462 10.486,-5.524 v -1.75 c 0,-2.715 -1.5,-4.056 -3.995,-4.056 -2.248,0 -3.059,0.75 -3.59,1.684 -0.436,0.812 -0.53,1.531 -1.278,1.531 a 0.88,0.88 0 0 1 -0.939,-0.906 2.917,2.917 0 0 1 1.095,-1.965 6.691,6.691 0 0 1 4.806,-1.592 c 4.182,0 5.462,2.34 5.462,5.462"
         fill="#161615"
         style="fill:#666666;fill-opacity:1" />
      <path
         id="Trazado_788"
         data-name="Trazado 788"
         d="m 822.32922,700.77868 v -20.006 a 7.135,7.135 0 0 1 -4.371,0.4 v -0.719 a 6.348,6.348 0 0 0 5.027,-2 l 0.9,0.25 v 22.1 l 3.5,0.28 v 0.9 h -8.678 v -0.9 z"
         fill="#161615"
         style="fill:#666666;fill-opacity:1" />
      <path
         id="Trazado_789"
         data-name="Trazado 789"
         d="m 814.41822,658.27068 c 2.512,0 5.054,1.642 5.146,5.456 h -10.758 c 0.464,-3.316 2.573,-5.456 5.612,-5.456 m 6.6,6.666 c 0.03,-0.217 0.03,-0.714 0.03,-0.993 0,-3.41 -2.139,-6.914 -6.6,-6.914 -4.37,0 -7.255,3.349 -7.255,8.185 0,4.836 2.917,8.187 7.537,8.187 3.38,0 5.331,-1.582 6.106,-3.971 l -0.96,-0.341 a 4.893,4.893 0 0 1 -4.962,3.07 c -3.907,0 -6.2,-2.7 -6.2,-6.915 v -0.31 z m -22.169,-0.558 c -2.017,-0.5 -4.559,-1.179 -4.559,-3.378 0,-1.46 1.054,-2.761 3.721,-2.761 2.387,0 3.628,1.054 4.745,3.008 l 0.991,1.735 0.775,-0.153 -0.993,-5.862 h -0.836 l -0.031,2.573 a 5.411,5.411 0 0 0 -4.868,-2.511 c -3.1,0 -4.96,1.737 -4.96,4 0,3.131 3.564,4.093 5.7,4.651 2.914,0.744 4.9,1.457 4.9,3.566 0,1.86 -1.581,2.975 -3.968,2.975 -2.481,0 -4.032,-1.24 -5.551,-3.719 l -0.961,-1.582 -0.807,0.155 1.024,6.047 h 0.868 l -0.094,-2.914 a 6.245,6.245 0 0 0 5.716,3.191 c 3.163,0 5.239,-1.676 5.239,-4.28 0,-3.006 -2.634,-3.875 -6.044,-4.743 m -11.07,-7.163 -0.868,-0.249 a 6.513,6.513 0 0 1 -4.993,2.017 v 0.682 a 6.892,6.892 0 0 0 4.279,-0.372 v 9.208 a 7.358,7.358 0 0 1 -5.952,3.6 c -2.418,0 -3.785,-1.613 -3.785,-4.063 v -10.821 l -0.836,-0.249 a 5.62,5.62 0 0 1 -4.559,2.017 v 0.682 a 6.219,6.219 0 0 0 3.846,-0.278 v 8.742 c 0,2.792 1.335,5.273 5.085,5.273 a 7.6,7.6 0 0 0 6.231,-3.444 l 0.031,3.134 0.094,0.061 4.835,-0.466 v -0.836 h -3.41 z m -36.37,-4.526 4.559,-0.342 v -0.961 h -10.79 v 0.961 l 4.588,0.31 v 8.374 h -12.095 v -8.373 l 4.59,-0.31 v -0.961 h -10.79 v 0.961 l 4.524,0.342 v 18.819 l -4.524,0.311 v 0.96 h 10.79 v -0.96 l -4.59,-0.311 v -9.238 h 12.092 v 9.239 l -4.588,0.311 v 0.96 h 10.79 v -0.96 l -4.559,-0.311 z m 11.906,19.471 c -3.627,0 -5.953,-2.791 -5.953,-6.946 0,-4.185 2.326,-6.944 5.953,-6.944 3.658,0 5.984,2.789 5.984,6.944 0,4.155 -2.326,6.946 -5.984,6.946 m 0,-15.131 c -4.556,0 -7.5,3.317 -7.5,8.185 0,4.837 2.947,8.187 7.471,8.187 4.559,0 7.534,-3.35 7.534,-8.187 0,-4.868 -2.975,-8.185 -7.5,-8.185"
         fill="#161615"
         style="fill:#666666;fill-opacity:1" />
      <path
         id="Trazado_790"
         data-name="Trazado 790"
         d="m 611.45322,623.66868 h 6.885 a 4.568,4.568 0 0 1 4.9,4.868 c 0,2.947 -1.615,5.178 -4.654,5.178 h -7.13 z m 4.807,19.193 -4.807,-0.311 v -7.595 h 7.348 c 3.846,0 6.078,-2.728 6.078,-6.389 a 5.819,5.819 0 0 0 -6.231,-6.139 h -13.365 v 0.96 l 4.5,0.341 v 18.821 l -4.5,0.311 v 0.961 h 10.977 z m 28.463,29.021 v 0.9 h 8.775 v -0.871 l -3.536,-0.308 v -9.489 a 7.2,7.2 0 0 1 5.953,-3.719 c 2.451,0 3.814,1.581 3.814,4.061 v 9.147 l -3.6,0.308 v 0.871 h 8.465 v -0.9 l -3.319,-0.31 v -9.272 c 0,-2.82 -1.363,-5.239 -5.053,-5.239 a 7.68,7.68 0 0 0 -6.3,3.5 v -3.315 l -0.868,-0.249 a 6.361,6.361 0 0 1 -4.962,2.017 v 0.652 a 6.965,6.965 0 0 0 4.311,-0.373 v 12.28 z m -33.27,-19.223 h 7.225 c 3.069,0 5.022,1.86 5.022,4.712 0,2.852 -1.643,4.9 -4.96,4.9 h -7.287 z m 4.807,19.161 -4.807,-0.31 v -7.97 h 6.388 l 4.526,9.241 h 5.675 v -0.961 l -4.62,-0.466 -3.846,-7.813 a 5.829,5.829 0 0 0 5.768,-6.17 5.747,5.747 0 0 0 -6.139,-5.953 h -13.922 v 0.961 l 4.529,0.341 v 18.791 l -4.529,0.31 v 0.961 h 10.977 z m 107.369,-29.207 v -9.27 c 0,-2.822 -1.365,-5.273 -5.054,-5.273 a 7.619,7.619 0 0 0 -6.263,3.535 v -3.348 l -0.868,-0.249 a 6.272,6.272 0 0 1 -4.963,2.015 v 0.683 a 6.984,6.984 0 0 0 4.311,-0.372 v 12.279 l -3.689,0.31 v 0.9 h 8.773 v -0.868 l -3.535,-0.311 v -9.489 a 7.221,7.221 0 0 1 5.922,-3.752 c 2.451,0 3.814,1.613 3.814,4.093 v 9.147 l -3.6,0.311 v 0.868 h 8.465 v -0.9 z m -0.061,19.565 c 0,-2.822 -1.18,-5.117 -4.468,-5.117 a 6.768,6.768 0 0 0 -5.8,3.38 4.005,4.005 0 0 0 -4.249,-3.38 7.1,7.1 0 0 0 -5.673,3.41 v -3.225 l -0.868,-0.249 a 6.449,6.449 0 0 1 -4.96,2.017 v 0.652 a 6.992,6.992 0 0 0 4.31,-0.4 v 12.309 l -3.689,0.31 v 0.9 h 8.09 v -0.871 l -2.85,-0.308 v -9.645 c 1.177,-2.046 3.131,-3.566 5.27,-3.566 2.481,0 3.288,1.676 3.288,4.216 v 8.992 l -3.039,0.308 v 0.871 h 7.659 v -0.871 l -3.069,-0.308 v -9.176 a 4.355,4.355 0 0 0 -0.031,-0.622 c 1.3,-2.2 3.1,-3.41 5.208,-3.41 2.512,0 3.319,1.706 3.319,4.185 v 9.023 l -2.822,0.308 v 0.871 h 7.751 v -0.871 l -3.378,-0.339 z m -26.7,-19.255 v 0.9 h 8.837 v -0.9 l -3.6,-0.31 v -14.326 l -0.869,-0.28 a 6.5,6.5 0 0 1 -4.99,2.015 v 0.683 a 7.007,7.007 0 0 0 4.309,-0.4 v 12.308 z m -7.5,29.237 c -3.627,0 -5.952,-2.791 -5.952,-6.944 0,-4.185 2.325,-6.913 5.952,-6.913 3.66,0 5.984,2.758 5.984,6.913 0,4.155 -2.325,6.944 -5.984,6.944 m 0,-15.1 c -4.557,0 -7.5,3.288 -7.5,8.154 0,4.837 2.945,8.185 7.473,8.185 4.559,0 7.534,-3.349 7.534,-8.185 0,-4.867 -2.975,-8.154 -7.5,-8.154 m -10.329,-26.634 v 8.744 c 0,2.792 1.333,5.273 5.085,5.273 a 7.6,7.6 0 0 0 6.233,-3.444 l 0.03,3.134 0.092,0.061 4.838,-0.466 v -0.841 h -3.411 v -14.63 l -0.866,-0.249 a 6.511,6.511 0 0 1 -4.995,2.015 v 0.683 a 6.907,6.907 0 0 0 4.28,-0.372 v 9.208 a 7.363,7.363 0 0 1 -5.953,3.6 c -2.42,0 -3.783,-1.613 -3.783,-4.063 v -10.822 l -0.838,-0.249 a 5.612,5.612 0 0 1 -4.557,2.015 v 0.683 a 6.2,6.2 0 0 0 3.844,-0.281 m -34.663,-0.091 v 12.279 l -3.691,0.31 v 0.9 h 8.775 v -0.868 l -3.533,-0.311 v -9.489 a 7.221,7.221 0 0 1 5.953,-3.752 c 2.448,0 3.813,1.613 3.813,4.093 v 9.147 l -3.6,0.311 v 0.868 h 8.465 v -0.9 l -3.316,-0.31 v -9.27 c 0,-2.822 -1.366,-5.273 -5.054,-5.273 a 7.635,7.635 0 0 0 -6.3,3.535 v -3.347 l -0.868,-0.249 a 6.267,6.267 0 0 1 -4.962,2.015 v 0.683 a 6.984,6.984 0 0 0 4.311,-0.372 m 32.625,38.353 a 5.145,5.145 0 0 1 -5.085,3.472 c -3.5,0 -5.58,-2.664 -5.58,-6.882 0,-4.124 2.325,-6.976 5.889,-6.976 a 5.259,5.259 0 0 1 4.776,2.789 z m -4.96,-11.626 c -4.341,0 -7.255,3.38 -7.255,8.279 0,4.8 2.573,8.061 6.882,8.061 a 5.9,5.9 0 0 0 5.365,-2.975 l 0.031,2.666 0.094,0.061 4.9,-0.464 v -0.838 h -3.5 v -22.323 l -0.838,-0.249 a 6.029,6.029 0 0 1 -4.929,2.636 v 0.68 a 5.723,5.723 0 0 0 4.216,-0.709 v 7.562 a 5.944,5.944 0 0 0 -4.96,-2.387 m -6.231,-13.551 3.1,0.28 c 3.627,0.327 4.743,1.363 4.743,2.729 0,1.89 -1.921,3.347 -5.8,3.347 -3.474,0 -5.457,-1.4 -5.457,-3.255 0,-1.395 1.179,-2.728 3.413,-3.1 m -2.543,-9.643 a 4.651,4.651 0 0 1 9.3,0.062 4.454,4.454 0 0 1 -4.682,4.526 4.566,4.566 0 0 1 -4.62,-4.588 m -2.295,12.838 c 0,2.387 2.264,4.37 6.852,4.37 4.806,0 7.318,-2.014 7.318,-4.681 0,-2.945 -3.439,-3.725 -6.822,-4 -2.509,-0.217 -4.835,-0.312 -4.835,-1.551 0,-0.619 0.619,-1.21 3.38,-1.21 h 1.022 a 5.82,5.82 0 0 0 4.59,-9.733 c 0.216,-2.822 2.7,-1.427 2.7,-2.886 a 0.869,0.869 0 0 0 -0.993,-0.932 c -1.424,0 -2.512,1.427 -2.7,2.978 a 6.068,6.068 0 0 0 -3.41,-0.993 c -3.783,0 -6.234,2.542 -6.234,5.736 a 5.542,5.542 0 0 0 2.886,5.024 c -1.676,0.155 -2.573,1.022 -2.573,2.2 0,0.838 0.527,1.643 1.921,2.109 a 3.887,3.887 0 0 0 -3.1,3.566 m -22.046,22.942 a 7.9,7.9 0 0 1 -5.519,2.512 c -1.829,0 -3.349,-0.866 -3.349,-2.634 0,-2.2 1.892,-4.248 8.867,-4.371 z m -10.387,-0.122 c 0,2.325 1.8,3.875 4.621,3.875 a 8.413,8.413 0 0 0 5.859,-2.512 2.416,2.416 0 0 0 2.575,2.046 2.6,2.6 0 0 0 2.729,-2.387 l -0.714,-0.31 c -0.248,0.961 -0.714,1.488 -1.549,1.488 -1.088,0 -1.583,-0.56 -1.583,-2.542 v -6.725 c 0,-3.1 -1.272,-5.395 -5.394,-5.395 a 6.649,6.649 0 0 0 -4.776,1.581 2.852,2.852 0 0 0 -1.085,1.923 0.872,0.872 0 0 0 0.932,0.9 c 0.743,0 0.836,-0.714 1.27,-1.521 0.527,-0.93 1.332,-1.642 3.535,-1.642 2.481,0 3.968,1.332 3.968,4 v 1.738 c -6.633,0.061 -10.387,1.954 -10.387,5.487 m 72.741,-44.587 a 1.333,1.333 0 1 0 0,-2.666 1.333,1.333 0 1 0 0,2.666 m -68.716,4.37 c 2.512,0 5.053,1.646 5.148,5.457 h -10.76 c 0.466,-3.317 2.573,-5.457 5.612,-5.457 m 0.31,15.133 c 3.38,0 5.334,-1.582 6.109,-3.969 l -0.963,-0.341 a 4.887,4.887 0 0 1 -4.96,3.069 c -3.905,0 -6.2,-2.7 -6.2,-6.915 v -0.31 h 12.308 c 0.03,-0.217 0.03,-0.714 0.03,-0.993 0,-3.411 -2.137,-6.914 -6.6,-6.914 -4.372,0 -7.255,3.349 -7.255,8.187 0,4.838 2.914,8.185 7.534,8.185"
         fill="#161615"
         style="fill:#666666;fill-opacity:1" />
      <path
         id="Trazado_791"
         data-name="Trazado 791"
         d="m 584.26122,620.87468 v 82.444 h 1.241 v -82.444 z"
         fill="#161615"
         style="fill:#666666;fill-opacity:1" />
      <path
         id="Trazado_792"
         data-name="Trazado 792"
         d="m 530.45622,614.95568 c -32.131,0.067 -33.489,40.136 -33.476,47.494 0.041,22.328 9.134,47.011 33.648,46.96 24.514,-0.051 33.5,-24.913 33.466,-47.241 -0.013,-7.359 -1.512,-47.278 -33.638,-47.213"
         fill="#161615" />
      <path
         id="Trazado_793"
         data-name="Trazado 793"
         d="m 530.62922,706.63768 c -22.6,0.048 -28.706,-23.991 -28.746,-44.584 -0.011,-6.788 -1.155,-44.682 28.476,-44.738 29.631,-0.056 28.817,38.029 28.837,44.816 0.04,20.6 -5.957,44.472 -28.567,44.506"
         fill="#ffffff" />
      <path
         id="Trazado_794"
         data-name="Trazado 794"
         d="m 545.53722,651.68668 c -2.653,-4.235 -6.381,-9.234 -6.8,-14.373 -0.258,-3.229 -0.07,-6.838 -2.24,-9.5 a 7.937,7.937 0 0 0 -2.407,-1.954 7.41,7.41 0 0 0 -3.244,-0.807 10.363,10.363 0 0 0 -2.985,0.447 23.748,23.748 0 0 1 -3.462,0.92 10.006,10.006 0 0 1 -3.823,-0.176 c -0.8,-0.178 -1.018,-0.241 -1.819,-0.413 -0.439,-0.1 -1.635,-0.442 -2.018,-0.07 -0.9,0.9 1.01,1.994 1.586,2.4 a 36.2,36.2 0 0 1 2.963,2.245 9.928,9.928 0 0 1 3.384,5.155 8.524,8.524 0 0 1 0.193,1.836 c 0.118,9 -14.913,17.849 -14.709,33.8 0.071,5.644 3.082,6.574 3.048,3.444 -0.055,-3.715 1.265,-7.728 2.631,-11.173 0.32,-0.8 1.329,-1.037 1.1,0.345 a 57.449,57.449 0 0 0 -1.166,12.126 34.633,34.633 0 0 0 0.318,4.466 25.681,25.681 0 0 0 0.777,3.508 15.594,15.594 0 0 0 1.132,2.785 11.453,11.453 0 0 0 1.333,1.982 10.208,10.208 0 0 0 1.646,1.515 2.464,2.464 0 0 1 0.92,0.973 c 0.244,0.645 -0.584,0.907 -1.017,1.106 -0.481,0.216 -0.9,0.457 -1.353,0.677 -0.648,0.317 -1.294,0.652 -1.926,1 -0.386,0.223 -0.826,0.354 -1.2,0.615 -0.371,0.237 -0.56,0.642 0.021,0.73 a 3.555,3.555 0 0 0 0.819,-0.041 3.562,3.562 0 0 1 1.376,0.089 c 0.589,0.233 0.558,0.8 0.581,1.346 0.024,0.6 0.435,0.788 0.966,0.646 a 4.347,4.347 0 0 0 1.5,-1.038 6.4,6.4 0 0 1 1.126,-0.792 5.373,5.373 0 0 1 2.657,-0.229 c 0.481,0.027 1.164,0.231 1.558,-0.162 0.394,-0.393 0.112,-1.092 -0.067,-1.538 a 13.024,13.024 0 0 0 -0.579,-1.237 c -0.1,-0.183 -0.231,-0.347 -0.311,-0.537 -0.341,-0.788 2.39,-1.378 2.786,-1.5 a 23.229,23.229 0 0 1 4.091,-0.777 8.531,8.531 0 0 1 3.962,0.385 3.3,3.3 0 0 1 1.308,1.038 c 0.2,0.243 0.655,0.978 0.25,1.275 -0.633,0.462 -1.289,0.862 -1.9,1.348 a 7.853,7.853 0 0 0 -1.093,0.993 c -0.247,0.277 -0.315,0.771 0.186,0.74 0.665,-0.033 1.329,-0.068 1.99,-0.071 a 2.483,2.483 0 0 1 1.387,0.334 c 0.648,0.444 0.79,1.389 1.525,1.752 a 0.932,0.932 0 0 0 0.673,0.034 c 0.481,-0.149 0.706,-0.646 0.966,-1.037 a 2.65,2.65 0 0 1 0.859,-0.906 1.611,1.611 0 0 1 0.777,-0.179 13.913,13.913 0 0 1 1.457,0.058 c 0.381,0.048 0.9,0.226 1.243,-0.03 0.64,-0.5 -1.049,-1.608 -1.387,-1.821 -0.768,-0.48 -1.867,-0.987 -2.11,-1.978 a 5.35,5.35 0 0 1 0.782,-3.393 33.188,33.188 0 0 0 1.606,-3.221 16.872,16.872 0 0 0 0.815,-3.238 c 0.841,-6.034 -0.561,-12.453 -2.322,-18.213 -0.212,-0.69 -0.474,-1.376 -0.682,-2.066 -0.305,-1.086 0.75,-1.342 1.291,-0.287 0.513,1.018 3.891,7.512 4.878,12.335 0.622,3.082 2.938,3.2 2.871,-2.257 -0.089,-7.911 -3.072,-13.624 -6.728,-19.441"
         fill="#161615" />
      <path
         id="Trazado_795"
         data-name="Trazado 795"
         d="m 542.75122,675.50068 c 0.408,3.978 0.851,10.847 -4.012,11.078 -1.287,0.064 -2.89,-0.839 -5.276,-0.677 -4.047,0.278 -5.254,1.831 -8.562,1.236 a 5.232,5.232 0 0 1 -4.087,-3.238 20.01,20.01 0 0 1 -1.126,-6.694 62.846,62.846 0 0 1 0,-7.531 c 0.109,-1.808 0.3,-3.614 0.537,-5.415 0.4,-2.988 1.03,-5.935 1.714,-8.869 a 38.934,38.934 0 0 1 2.336,-7.6 8.866,8.866 0 0 1 3.836,-4.379 7.846,7.846 0 0 1 6.646,-0.067 c 4.374,2.242 4.266,7.468 4.405,11.709 a 67.188,67.188 0 0 0 1.108,9.841 c 0.649,3.573 2.1,6.971 2.481,10.608"
         fill="#ffffff" />
      <path
         id="Trazado_796"
         data-name="Trazado 796"
         d="m 535.67222,631.71868 c 0.9,1.049 0.842,5.379 -0.625,6.879 -0.858,0.88 -2.311,1 -3.455,1.156 a 37.369,37.369 0 0 0 -3.755,0.77 c -1.19,0.293 -1.106,-0.966 0.038,-1.866 1.71,-1.342 6.006,-1.937 7.044,-6.939 0.036,-0.19 0.243,-0.6 0.753,0"
         fill="#ffffff" />
      <path
         id="Trazado_797"
         data-name="Trazado 797"
         d="m 529.44822,632.85468 a 3.062,3.062 0 1 0 -0.534,-3.947 2.834,2.834 0 0 0 0.534,3.951"
         fill="#ffffff" />
      <path
         id="Trazado_798"
         data-name="Trazado 798"
         d="m 530.57822,630.12468 a 1.317,1.317 0 0 1 1.764,-0.541 1.48,1.48 0 1 1 -1.764,0.541"
         fill="#161615" />
      <path
         id="Trazado_799"
         data-name="Trazado 799"
         d="m 530.45622,614.95568 c -32.131,0.067 -33.489,40.136 -33.476,47.494 0.041,22.328 9.134,47.011 33.648,46.96 24.514,-0.051 33.5,-24.913 33.466,-47.241 -0.013,-7.359 -1.512,-47.278 -33.638,-47.213"
         fill="#161615"
         style="fill:#666666" />
      <path
         id="Trazado_800"
         data-name="Trazado 800"
         d="m 530.62922,706.63768 c -22.6,0.048 -28.706,-23.991 -28.746,-44.584 -0.011,-6.788 -1.155,-44.682 28.476,-44.738 29.631,-0.056 28.817,38.029 28.837,44.816 0.04,20.6 -5.957,44.472 -28.567,44.506"
         fill="#e85300"
         style="fill:#ffffff" />
      <path
         id="Trazado_801"
         data-name="Trazado 801"
         d="m 545.53722,651.68668 c -2.653,-4.235 -6.381,-9.234 -6.8,-14.373 -0.258,-3.229 -0.07,-6.838 -2.24,-9.5 a 7.937,7.937 0 0 0 -2.407,-1.954 7.41,7.41 0 0 0 -3.244,-0.807 10.363,10.363 0 0 0 -2.985,0.447 23.748,23.748 0 0 1 -3.462,0.92 10.006,10.006 0 0 1 -3.823,-0.176 c -0.8,-0.178 -1.018,-0.241 -1.819,-0.413 -0.439,-0.1 -1.635,-0.442 -2.018,-0.07 -0.9,0.9 1.01,1.994 1.586,2.4 a 36.2,36.2 0 0 1 2.963,2.245 9.928,9.928 0 0 1 3.384,5.155 8.524,8.524 0 0 1 0.193,1.836 c 0.118,9 -14.913,17.849 -14.709,33.8 0.071,5.644 3.082,6.574 3.048,3.444 -0.055,-3.715 1.265,-7.728 2.631,-11.173 0.32,-0.8 1.329,-1.037 1.1,0.345 a 57.449,57.449 0 0 0 -1.166,12.126 34.633,34.633 0 0 0 0.318,4.466 25.681,25.681 0 0 0 0.777,3.508 15.594,15.594 0 0 0 1.132,2.785 11.453,11.453 0 0 0 1.333,1.982 10.208,10.208 0 0 0 1.646,1.515 2.464,2.464 0 0 1 0.92,0.973 c 0.244,0.645 -0.584,0.907 -1.017,1.106 -0.481,0.216 -0.9,0.457 -1.353,0.677 -0.648,0.317 -1.294,0.652 -1.926,1 -0.386,0.223 -0.826,0.354 -1.2,0.615 -0.371,0.237 -0.56,0.642 0.021,0.73 a 3.555,3.555 0 0 0 0.819,-0.041 3.562,3.562 0 0 1 1.376,0.089 c 0.589,0.233 0.558,0.8 0.581,1.346 0.024,0.6 0.435,0.788 0.966,0.646 a 4.347,4.347 0 0 0 1.5,-1.038 6.4,6.4 0 0 1 1.126,-0.792 5.373,5.373 0 0 1 2.657,-0.229 c 0.481,0.027 1.164,0.231 1.558,-0.162 0.394,-0.393 0.112,-1.092 -0.067,-1.538 a 13.024,13.024 0 0 0 -0.579,-1.237 c -0.1,-0.183 -0.231,-0.347 -0.311,-0.537 -0.341,-0.788 2.39,-1.378 2.786,-1.5 a 23.229,23.229 0 0 1 4.091,-0.777 8.531,8.531 0 0 1 3.962,0.385 3.3,3.3 0 0 1 1.308,1.038 c 0.2,0.243 0.655,0.978 0.25,1.275 -0.633,0.462 -1.289,0.862 -1.9,1.348 a 7.853,7.853 0 0 0 -1.093,0.993 c -0.247,0.277 -0.315,0.771 0.186,0.74 0.665,-0.033 1.329,-0.068 1.99,-0.071 a 2.483,2.483 0 0 1 1.387,0.334 c 0.648,0.444 0.79,1.389 1.525,1.752 a 0.932,0.932 0 0 0 0.673,0.034 c 0.481,-0.149 0.706,-0.646 0.966,-1.037 a 2.65,2.65 0 0 1 0.859,-0.906 1.611,1.611 0 0 1 0.777,-0.179 13.913,13.913 0 0 1 1.457,0.058 c 0.381,0.048 0.9,0.226 1.243,-0.03 0.64,-0.5 -1.049,-1.608 -1.387,-1.821 -0.768,-0.48 -1.867,-0.987 -2.11,-1.978 a 5.35,5.35 0 0 1 0.782,-3.393 33.188,33.188 0 0 0 1.606,-3.221 16.872,16.872 0 0 0 0.815,-3.238 c 0.841,-6.034 -0.561,-12.453 -2.322,-18.213 -0.212,-0.69 -0.474,-1.376 -0.682,-2.066 -0.305,-1.086 0.75,-1.342 1.291,-0.287 0.513,1.018 3.891,7.512 4.878,12.335 0.622,3.082 2.938,3.2 2.871,-2.257 -0.089,-7.911 -3.072,-13.624 -6.728,-19.441"
         fill="#161615"
         style="fill:#666666" />
      <path
         id="Trazado_802"
         data-name="Trazado 802"
         d="m 542.75122,675.50068 c 0.408,3.978 0.851,10.847 -4.012,11.078 -1.287,0.064 -2.89,-0.839 -5.276,-0.677 -4.047,0.278 -5.254,1.831 -8.562,1.236 a 5.232,5.232 0 0 1 -4.087,-3.238 20.01,20.01 0 0 1 -1.126,-6.694 62.846,62.846 0 0 1 0,-7.531 c 0.109,-1.808 0.3,-3.614 0.537,-5.415 0.4,-2.988 1.03,-5.935 1.714,-8.869 a 38.934,38.934 0 0 1 2.336,-7.6 8.866,8.866 0 0 1 3.836,-4.379 7.846,7.846 0 0 1 6.646,-0.067 c 4.374,2.242 4.266,7.468 4.405,11.709 a 67.188,67.188 0 0 0 1.108,9.841 c 0.649,3.573 2.1,6.971 2.481,10.608"
         fill="#ffffff" />
      <path
         id="Trazado_803"
         data-name="Trazado 803"
         d="m 535.67222,631.71868 c 0.9,1.049 0.842,5.379 -0.625,6.879 -0.858,0.88 -2.311,1 -3.455,1.156 a 37.369,37.369 0 0 0 -3.755,0.77 c -1.19,0.293 -1.106,-0.966 0.038,-1.866 1.71,-1.342 6.006,-1.937 7.044,-6.939 0.036,-0.19 0.243,-0.6 0.753,0"
         fill="#ffffff" />
      <path
         id="Trazado_804"
         data-name="Trazado 804"
         d="m 529.44822,632.85468 a 3.062,3.062 0 1 0 -0.534,-3.947 2.834,2.834 0 0 0 0.534,3.951"
         fill="#ffffff" />
      <path
         id="Trazado_805"
         data-name="Trazado 805"
         d="m 530.57822,630.12468 a 1.317,1.317 0 0 1 1.764,-0.541 1.48,1.48 0 1 1 -1.764,0.541"
         fill="#161615"
         style="fill:#666666" />
    </g>
  </g>
</svg>
