<?xml version="1.0" encoding="UTF-8" standalone="no"?>
<svg
   xmlns:dc="http://purl.org/dc/elements/1.1/"
   xmlns:cc="http://creativecommons.org/ns#"
   xmlns:rdf="http://www.w3.org/1999/02/22-rdf-syntax-ns#"
   xmlns:svg="http://www.w3.org/2000/svg"
   xmlns="http://www.w3.org/2000/svg"
   xmlns:sodipodi="http://sodipodi.sourceforge.net/DTD/sodipodi-0.dtd"
   xmlns:inkscape="http://www.inkscape.org/namespaces/inkscape"
   width="135.383mm"
   height="135.28101mm"
   viewBox="0 0 135.383 135.28101"
   version="1.1"
   id="svg8"
   inkscape:version="1.0.2-2 (e86c870879, 2021-01-15)"
   sodipodi:docname="serveis.svg">
  <defs
     id="defs2">
    <rect
       x="240.01488"
       y="-260.04761"
       width="72.949402"
       height="30.616072"
       id="rect954" />
  </defs>
  <sodipodi:namedview
     id="base"
     pagecolor="#ffffff"
     bordercolor="#666666"
     borderopacity="1.0"
     inkscape:pageopacity="0.0"
     inkscape:pageshadow="2"
     inkscape:zoom="0.35355339"
     inkscape:cx="452.06775"
     inkscape:cy="426.70456"
     inkscape:document-units="mm"
     inkscape:current-layer="layer1"
     inkscape:document-rotation="0"
     showgrid="false"
     showguides="true"
     inkscape:guide-bbox="true"
     inkscape:snap-global="true"
     inkscape:window-width="1920"
     inkscape:window-height="1027"
     inkscape:window-x="1912"
     inkscape:window-y="-8"
     inkscape:window-maximized="1" />
  <metadata
     id="metadata5">
    <rdf:RDF>
      <cc:Work
         rdf:about="">
        <dc:format>image/svg+xml</dc:format>
        <dc:type
           rdf:resource="http://purl.org/dc/dcmitype/StillImage" />
        <dc:title></dc:title>
      </cc:Work>
    </rdf:RDF>
  </metadata>
  <g
     inkscape:label="Capa 1"
     inkscape:groupmode="layer"
     id="layer1">
    <text
       xml:space="preserve"
       id="text952"
       style="font-style:normal;font-weight:normal;font-size:10.5833px;line-height:1.25;font-family:sans-serif;white-space:pre;shape-inside:url(#rect954);fill:#000000;fill-opacity:1;stroke:none;" />
    <path
       style="fill:#00808c;fill-opacity:1;stroke-width:0.264583"
       d="m 74.033046,135.13866 c -10.5624,-1.14387 -20.46724,-5.19155 -28.97187,-11.83955 -2.64501,-2.06759 -7.92751,-7.48303 -9.78959,-10.03597 l -1.5875,-2.17649 -15.29022,-0.002 c -14.91167,-0.002 -15.31667,-0.0151 -16.35791,-0.54632 -1.78439998,-0.91037 -2.56373998,-3.30994 -1.65342998,-5.09088 0.23805,-0.46572 3.29808998,-3.65122 6.80007998,-7.078895 l 6.36725,-6.23212 -1.47677,-1.83767 C -0.31670398,74.881145 -3.447674,53.323615 4.018846,34.843271 12.786896,13.14153 34.617516,-0.99009895 57.761166,0.05421605 c 8.30124,0.374578 14.97839,2.05485205 22.225,5.59282205 9.88372,4.8254649 18.05303,12.3746659 23.667644,21.8710959 1.51564,2.563513 1.66447,2.723621 3.50964,3.775403 11.21532,6.392957 19.71316,16.227138 24.39999,28.237058 7.17286,18.38034 3.96992,39.62106 -8.27038,54.845995 l -1.47799,1.83839 6.2419,6.09911 c 3.43305,3.35451 6.4929,6.51583 6.79967,7.02515 0.68757,1.14157 0.70035,2.17824 0.0446,3.6225 -0.34927,0.7693 -0.81346,1.26563 -1.51555,1.62047 -0.97587,0.49321 -2.01509,0.51665 -29.0579,0.65555 -16.378684,0.0841 -28.981414,0.0427 -30.294794,-0.0995 z m 37.679814,-7.82669 9.98516,-0.17559 -4.35731,-4.38847 c -2.39652,-2.41366 -4.4891,-4.64854 -4.65019,-4.96639 -0.36117,-0.71265 -0.37707,-1.94435 -0.0367,-2.83969 0.14092,-0.37066 1.28294,-1.83693 2.53781,-3.25837 8.40977,-9.52609 12.73871,-21.477365 12.19687,-33.672985 -0.56626,-12.74514 -5.44078,-23.65956 -14.56403,-32.6099 -1.44623,-1.41882 -2.70733,-2.57968 -2.80243,-2.57968 -0.0951,0 0.0344,1.04179 0.28771,2.3151 1.53632,7.72175 1.28466,16.35213 -0.70579,24.20441 -4.98652,19.6717 -20.642274,35.296325 -40.379844,40.299535 -4.97262,1.2605 -7.28285,1.49519 -16.49007,1.67523 l -8.73125,0.17072 2.25316,2.25325 c 7.37646,7.37675 17.57587,12.27072 28.04163,13.45519 2.49035,0.28184 24.1965,0.35009 37.415234,0.11764 z M 59.613256,103.13458 c 17.03713,-1.61247 31.35928,-11.333615 38.76948,-26.314735 7.702174,-15.57141 6.353834,-34.21147 -3.4937,-48.298204 C 81.134686,8.8462621 55.459426,2.2999731 34.201506,13.048452 14.703876,22.906886 4.401026,44.478445 8.990666,65.833575 c 1.75762,8.178 5.50853,15.39621 11.49996,22.13039 2.04668,2.3004 2.47784,3.05983 2.47784,4.36437 0,1.29949 -0.56524,2.02704 -5.01257,6.45193 l -4.25479,4.233335 7.34566,0.1386 c 14.25749,0.26903 35.64109,0.25925 38.56649,-0.0176 z M 30.191796,75.078845 c -1.21252,-0.60019 -2.19625,-2.18223 -2.19625,-3.53203 0,-1.11398 0.99675,-2.66471 2.11774,-3.29473 0.99561,-0.55957 1.03169,-0.56036 25.54985,-0.56036 24.25087,0 24.56669,0.007 25.6788,0.54507 1.18911,0.57564 2.21611,2.16225 2.21611,3.42368 0,1.26142 -1.027,2.84804 -2.21611,3.42368 -1.11203,0.53832 -1.42865,0.54507 -25.58253,0.54486 -24.23185,-2.1e-4 -24.46677,-0.005 -25.56761,-0.55017 z m 0,-15.875 c -1.21252,-0.60019 -2.19625,-2.18223 -2.19625,-3.53203 0,-1.11397 0.99675,-2.66471 2.11774,-3.29473 0.99561,-0.55957 1.03169,-0.56036 25.54985,-0.56036 24.25087,0 24.56669,0.007 25.6788,0.54507 1.18911,0.57564 2.21611,2.16226 2.21611,3.42368 0,1.26142 -1.027,2.84804 -2.21611,3.42368 -1.11203,0.53832 -1.42865,0.54507 -25.58253,0.54486 -24.23185,-2.1e-4 -24.46677,-0.005 -25.56761,-0.55017 z m 0,-15.875 c -1.21252,-0.60019 -2.19625,-2.18223 -2.19625,-3.53203 0,-1.11397 0.99675,-2.664705 2.11774,-3.294731 0.99561,-0.559567 1.03169,-0.560358 25.54985,-0.560358 24.25087,0 24.56669,0.0067 25.6788,0.545071 1.18911,0.575638 2.21611,2.162258 2.21611,3.423678 0,1.26143 -1.027,2.84804 -2.21611,3.42368 -1.11203,0.53832 -1.42865,0.54507 -25.58253,0.54486 -24.23185,-2e-4 -24.46677,-0.005 -25.56761,-0.55017 z"
       id="path893" />
  </g>
</svg>
